<?xml version="1.0" encoding="UTF-8" standalone="no"?>
<svg
   xmlns:dc="http://purl.org/dc/elements/1.1/"
   xmlns:cc="http://creativecommons.org/ns#"
   xmlns:rdf="http://www.w3.org/1999/02/22-rdf-syntax-ns#"
   xmlns:svg="http://www.w3.org/2000/svg"
   xmlns="http://www.w3.org/2000/svg"
   xmlns:sodipodi="http://sodipodi.sourceforge.net/DTD/sodipodi-0.dtd"
   xmlns:inkscape="http://www.inkscape.org/namespaces/inkscape"
   version="1.1"
   id="svg3060"
   xml:space="preserve"
   width="16"
   height="16"
   viewBox="0 0 16 16"
   sodipodi:docname="safari-pinned-tab.svg"
   inkscape:export-filename="/home/santiago/desarrollo/test/alvarez-bufete-abogados/public/img/icons/apple-touch-icon-60x60.png"
   inkscape:export-xdpi="97"
   inkscape:export-ydpi="97"
   inkscape:version="1.0.2 (e86c870879, 2021-01-15)"><metadata
     id="metadata3066"><rdf:RDF><cc:Work
         rdf:about=""><dc:format>image/svg+xml</dc:format><dc:type
           rdf:resource="http://purl.org/dc/dcmitype/StillImage" /><dc:title></dc:title></cc:Work></rdf:RDF></metadata><defs
     id="defs3064"><clipPath
       clipPathUnits="userSpaceOnUse"
       id="clipPath4058"><path
         d="M 0,1080 H 1920 V 0 H 0 Z"
         id="path4056" /></clipPath></defs><sodipodi:namedview
     pagecolor="#ffffff"
     bordercolor="#666666"
     borderopacity="1"
     objecttolerance="10"
     gridtolerance="10"
     guidetolerance="10"
     inkscape:pageopacity="0"
     inkscape:pageshadow="2"
     inkscape:window-width="1366"
     inkscape:window-height="710"
     id="namedview3062"
     showgrid="false"
     inkscape:zoom="31.9375"
     inkscape:cx="8"
     inkscape:cy="8"
     inkscape:window-x="1366"
     inkscape:window-y="27"
     inkscape:window-maximized="1"
     inkscape:current-layer="g3068" /><g
     id="g3068"
     inkscape:groupmode="layer"
     inkscape:label="Manual Marca-Ãlvarez Abogados (1)"
     transform="matrix(1.3333333,0,0,-1.3333333,0,1440)"><rect
       style="fill:#ffffff;fill-opacity:1;fill-rule:evenodd;stroke-width:0.750001"
       id="rect3274"
       width="12"
       height="12"
       x="1.5000001e-07"
       y="-1080"
       transform="scale(1,-1)"
       ry="2.0681989"
       inkscape:export-filename="/home/santiago/desarrollo/test/alvarez-bufete-abogados/public/img/icons/favicon-32x32.png"
       inkscape:export-xdpi="97"
       inkscape:export-ydpi="97" /><g
       id="g4052"
       transform="matrix(0.02487696,0,0,0.02487696,-17.890684,1060.7808)"
       style="stroke-width:40.1978"><g
         id="g4054"
         clip-path="url(#clipPath4058)"
         style="stroke-width:40.1978"><g
           id="g4060"
           transform="translate(775.397,383.0439)"
           style="stroke-width:40.1978"><path
             d="M 0,0 C 1.432,0.969 2.148,2.462 2.148,4.481 2.148,6.5 1.432,7.986 0,8.941 -1.432,9.896 -3.539,10.373 -6.321,10.373 H -17 V -1.452 H -6.321 C -3.539,-1.452 -1.432,-0.968 0,0 M -17,23.59 V 12.174 h 9.779 c 2.51,0 4.438,0.484 5.789,1.452 1.35,0.968 2.025,2.394 2.025,4.275 0,1.855 -0.675,3.267 -2.025,4.235 -1.351,0.968 -3.279,1.454 -5.789,1.454 z M 2.62,9.104 C 3.697,7.877 4.235,6.282 4.235,4.317 4.235,1.89 3.349,0.021 1.576,-1.288 -0.197,-2.598 -2.83,-3.252 -6.321,-3.252 H -19.087 V 25.39 h 11.948 c 3.109,0 5.53,-0.635 7.263,-1.904 1.731,-1.267 2.597,-3.075 2.597,-5.421 0,-1.636 -0.429,-3.014 -1.289,-4.132 C 0.573,12.813 -0.593,12.009 -2.066,11.52 -0.02,11.137 1.541,10.332 2.62,9.104"
             style="fill:#5d77a0;fill-opacity:1;fill-rule:nonzero;stroke:none;stroke-width:40.1978"
             id="path4062" /></g><g
           id="g4064"
           transform="translate(805.123,401.1494)"
           style="stroke-width:40.1978"><path
             d="m 0,0 v -21.357 h -1.965 v 4.583 c -0.709,-1.501 -1.759,-2.667 -3.151,-3.499 -1.39,-0.832 -3.027,-1.248 -4.909,-1.248 -2.783,0 -4.965,0.778 -6.546,2.332 -1.583,1.555 -2.374,3.791 -2.374,6.71 V 0 h 2.046 v -12.314 c 0,-2.401 0.614,-4.23 1.841,-5.483 1.227,-1.256 2.959,-1.884 5.196,-1.884 2.401,0 4.304,0.751 5.709,2.252 1.404,1.499 2.107,3.519 2.107,6.055 V 0 Z"
             style="fill:#5d77a0;fill-opacity:1;fill-rule:nonzero;stroke:none;stroke-width:40.1978"
             id="path4066" /></g><g
           id="g4068"
           transform="translate(816.2109,404.2607)"
           style="stroke-width:40.1978"><path
             d="M 0,0 V -3.111 H 6.833 V -4.87 H 0.042 V -24.469 H -2.005 V -4.87 h -3.929 v 1.759 h 3.929 v 3.274 c 0,1.8 0.518,3.233 1.555,4.296 1.035,1.064 2.495,1.596 4.378,1.596 0.818,0 1.601,-0.117 2.352,-0.348 C 7.03,5.475 7.65,5.127 8.142,4.664 L 7.324,3.108 C 6.45,3.899 5.346,4.295 4.01,4.295 1.336,4.295 0,2.862 0,0"
             style="fill:#5d77a0;fill-opacity:1;fill-rule:nonzero;stroke:none;stroke-width:40.1978"
             id="path4070" /></g><g
           id="g4072"
           transform="translate(830.6958,398.5117)"
           style="stroke-width:40.1978"><path
             d="m 0,0 c -1.2,-0.669 -2.163,-1.609 -2.884,-2.824 -0.724,-1.213 -1.14,-2.585 -1.249,-4.112 h 16.366 c -0.081,1.527 -0.491,2.891 -1.227,4.091 -0.736,1.2 -1.704,2.142 -2.904,2.824 C 6.9,0.66 5.551,1.003 4.05,1.003 2.55,1.003 1.2,0.667 0,0 M 14.198,-8.531 H -4.173 c 0.054,-1.664 0.476,-3.146 1.267,-4.44 0.792,-1.297 1.862,-2.299 3.212,-3.008 1.351,-0.708 2.872,-1.064 4.563,-1.064 1.391,0 2.68,0.252 3.867,0.758 1.186,0.504 2.174,1.247 2.966,2.229 l 1.186,-1.35 c -0.927,-1.118 -2.094,-1.978 -3.497,-2.577 -1.407,-0.601 -2.926,-0.9 -4.563,-0.9 -2.127,0 -4.025,0.462 -5.687,1.391 -1.664,0.927 -2.967,2.21 -3.908,3.846 -0.941,1.636 -1.412,3.504 -1.412,5.606 0,2.072 0.443,3.934 1.329,5.584 0.887,1.651 2.109,2.94 3.663,3.866 1.555,0.929 3.301,1.393 5.237,1.393 1.936,0 3.677,-0.458 5.218,-1.371 1.541,-0.915 2.753,-2.19 3.641,-3.827 0.885,-1.636 1.329,-3.492 1.329,-5.564 z"
             style="fill:#5d77a0;fill-opacity:1;fill-rule:nonzero;stroke:none;stroke-width:40.1978"
             id="path4074" /></g><g
           id="g4076"
           transform="translate(861.8721,381.1426)"
           style="stroke-width:40.1978"><path
             d="m 0,0 c -0.518,-0.491 -1.166,-0.866 -1.943,-1.126 -0.778,-0.259 -1.59,-0.388 -2.435,-0.388 -1.854,0 -3.287,0.511 -4.296,1.534 -1.01,1.022 -1.514,2.448 -1.514,4.276 v 13.952 h -3.929 v 1.759 h 3.929 v 4.665 h 2.046 V 20.007 H -1.35 V 18.248 H -8.142 V 4.5 c 0,-1.391 0.334,-2.448 1.003,-3.171 0.667,-0.724 1.657,-1.084 2.966,-1.084 1.336,0 2.44,0.395 3.314,1.187 z"
             style="fill:#5d77a0;fill-opacity:1;fill-rule:nonzero;stroke:none;stroke-width:40.1978"
             id="path4078" /></g><g
           id="g4080"
           transform="translate(870.6284,398.5117)"
           style="stroke-width:40.1978"><path
             d="m 0,0 c -1.2,-0.669 -2.163,-1.609 -2.884,-2.824 -0.723,-1.213 -1.14,-2.585 -1.249,-4.112 h 16.366 c -0.081,1.527 -0.491,2.891 -1.227,4.091 -0.736,1.2 -1.704,2.142 -2.904,2.824 C 6.9,0.66 5.551,1.003 4.05,1.003 2.551,1.003 1.2,0.667 0,0 M 14.199,-8.531 H -4.173 c 0.054,-1.664 0.477,-3.146 1.267,-4.44 0.792,-1.297 1.862,-2.299 3.213,-3.008 1.35,-0.708 2.871,-1.064 4.563,-1.064 1.39,0 2.679,0.252 3.866,0.758 1.186,0.504 2.174,1.247 2.966,2.229 l 1.186,-1.35 c -0.927,-1.118 -2.094,-1.978 -3.497,-2.577 -1.407,-0.601 -2.926,-0.9 -4.563,-0.9 -2.127,0 -4.024,0.462 -5.687,1.391 -1.664,0.927 -2.966,2.21 -3.907,3.846 -0.942,1.636 -1.412,3.504 -1.412,5.606 0,2.072 0.442,3.934 1.329,5.584 0.886,1.651 2.108,2.94 3.662,3.866 1.555,0.929 3.301,1.393 5.237,1.393 1.936,0 3.677,-0.458 5.218,-1.371 1.541,-0.915 2.753,-2.19 3.642,-3.827 0.884,-1.636 1.329,-3.492 1.329,-5.564 z"
             style="fill:#5d77a0;fill-opacity:1;fill-rule:nonzero;stroke:none;stroke-width:40.1978"
             id="path4082" /></g><g
           id="g4084"
           transform="translate(914.4697,382.6143)"
           style="stroke-width:40.1978"><path
             d="m 0,0 c 1.295,0.764 2.317,1.828 3.069,3.192 0.749,1.364 1.124,2.919 1.124,4.665 0,1.745 -0.375,3.3 -1.124,4.664 -0.752,1.364 -1.774,2.428 -3.069,3.192 -1.296,0.763 -2.763,1.145 -4.398,1.145 -1.637,0 -3.103,-0.382 -4.4,-1.145 -1.296,-0.764 -2.318,-1.828 -3.067,-3.192 -0.751,-1.364 -1.126,-2.919 -1.126,-4.664 0,-1.746 0.375,-3.301 1.126,-4.665 0.749,-1.364 1.771,-2.428 3.067,-3.192 1.297,-0.763 2.763,-1.146 4.4,-1.146 1.635,0 3.102,0.383 4.398,1.146 M 6.24,27.538 V -2.822 H 4.235 V 2.21 C 3.389,0.546 2.203,-0.735 0.675,-1.635 c -1.529,-0.901 -3.26,-1.35 -5.196,-1.35 -1.992,0 -3.792,0.462 -5.401,1.39 -1.61,0.927 -2.871,2.21 -3.785,3.847 -0.914,1.636 -1.371,3.504 -1.371,5.605 0,2.1 0.457,3.974 1.371,5.625 0.914,1.651 2.175,2.932 3.785,3.847 1.609,0.913 3.409,1.371 5.401,1.371 1.909,0 3.62,-0.451 5.134,-1.35 1.514,-0.901 2.707,-2.156 3.58,-3.766 v 13.954 z"
             style="fill:#5d77a0;fill-opacity:1;fill-rule:nonzero;stroke:none;stroke-width:40.1978"
             id="path4086" /></g><g
           id="g4088"
           transform="translate(933.188,398.5117)"
           style="stroke-width:40.1978"><path
             d="m 0,0 c -1.2,-0.669 -2.163,-1.609 -2.884,-2.824 -0.723,-1.213 -1.14,-2.585 -1.249,-4.112 h 16.366 c -0.081,1.527 -0.491,2.891 -1.227,4.091 -0.736,1.2 -1.704,2.142 -2.904,2.824 C 6.9,0.66 5.551,1.003 4.05,1.003 2.551,1.003 1.2,0.667 0,0 M 14.199,-8.531 H -4.173 c 0.054,-1.664 0.477,-3.146 1.267,-4.44 0.792,-1.297 1.862,-2.299 3.213,-3.008 1.35,-0.708 2.871,-1.064 4.563,-1.064 1.39,0 2.679,0.252 3.866,0.758 1.186,0.504 2.174,1.247 2.966,2.229 l 1.186,-1.35 c -0.927,-1.118 -2.094,-1.978 -3.497,-2.577 -1.407,-0.601 -2.926,-0.9 -4.563,-0.9 -2.127,0 -4.024,0.462 -5.687,1.391 -1.664,0.927 -2.966,2.21 -3.907,3.846 -0.942,1.636 -1.412,3.504 -1.412,5.606 0,2.072 0.442,3.934 1.329,5.584 0.886,1.651 2.108,2.94 3.662,3.866 1.555,0.929 3.301,1.393 5.237,1.393 1.936,0 3.677,-0.458 5.218,-1.371 1.541,-0.915 2.753,-2.19 3.642,-3.827 0.884,-1.636 1.329,-3.492 1.329,-5.564 z"
             style="fill:#5d77a0;fill-opacity:1;fill-rule:nonzero;stroke:none;stroke-width:40.1978"
             id="path4090" /></g><g
           id="g4092"
           transform="translate(981.877,389.6123)"
           style="stroke-width:40.1978"><path
             d="M 0,0 -7.528,16.53 -15.016,0 Z m 0.778,-1.76 h -16.612 l -3.642,-8.06 h -2.25 l 13.175,28.641 h 2.086 L 6.711,-9.82 H 4.46 Z"
             style="fill:#5d77a0;fill-opacity:1;fill-rule:nonzero;stroke:none;stroke-width:40.1978"
             id="path4094" /></g><g
           id="g4096"
           transform="translate(1008.1445,382.6143)"
           style="stroke-width:40.1978"><path
             d="m 0,0 c 1.311,0.764 2.339,1.828 3.089,3.192 0.751,1.364 1.126,2.919 1.126,4.665 0,1.745 -0.375,3.3 -1.126,4.664 -0.75,1.364 -1.778,2.428 -3.089,3.192 -1.31,0.763 -2.781,1.145 -4.418,1.145 -1.638,0 -3.103,-0.382 -4.398,-1.145 -1.296,-0.764 -2.319,-1.828 -3.07,-3.192 -0.75,-1.364 -1.126,-2.919 -1.126,-4.664 0,-1.746 0.376,-3.301 1.126,-4.665 0.751,-1.364 1.774,-2.428 3.07,-3.192 1.295,-0.763 2.76,-1.146 4.398,-1.146 1.637,0 3.108,0.383 4.418,1.146 M 1.105,17.329 C 2.714,16.414 3.976,15.133 4.89,13.482 5.803,11.831 6.262,9.957 6.262,7.857 6.262,5.756 5.803,3.888 4.89,2.252 3.976,0.615 2.714,-0.668 1.105,-1.595 c -1.609,-0.928 -3.41,-1.39 -5.4,-1.39 -1.911,0 -3.637,0.455 -5.176,1.37 -1.543,0.914 -2.735,2.188 -3.581,3.825 v -5.032 h -1.965 v 30.36 h 2.047 v -13.87 c 0.845,1.581 2.032,2.815 3.559,3.702 1.528,0.886 3.232,1.33 5.116,1.33 1.99,0 3.791,-0.458 5.4,-1.371"
             style="fill:#5d77a0;fill-opacity:1;fill-rule:nonzero;stroke:none;stroke-width:40.1978"
             id="path4098" /></g><g
           id="g4100"
           transform="translate(1033.4922,382.6143)"
           style="stroke-width:40.1978"><path
             d="m 0,0 c 1.295,0.764 2.317,1.828 3.069,3.192 0.749,1.364 1.124,2.919 1.124,4.665 0,1.745 -0.375,3.3 -1.124,4.664 -0.752,1.364 -1.774,2.428 -3.069,3.192 -1.296,0.763 -2.763,1.145 -4.398,1.145 -1.637,0 -3.104,-0.382 -4.4,-1.145 -1.296,-0.764 -2.318,-1.828 -3.067,-3.192 -0.751,-1.364 -1.126,-2.919 -1.126,-4.664 0,-1.746 0.375,-3.301 1.126,-4.665 0.749,-1.364 1.771,-2.428 3.067,-3.192 1.296,-0.763 2.763,-1.146 4.4,-1.146 1.635,0 3.102,0.383 4.398,1.146 m -9.86,-1.595 c -1.624,0.927 -2.899,2.215 -3.828,3.866 -0.925,1.651 -1.39,3.512 -1.39,5.586 0,2.073 0.465,3.934 1.39,5.584 0.929,1.652 2.204,2.941 3.828,3.867 1.621,0.928 3.442,1.392 5.462,1.392 2.018,0 3.838,-0.464 5.462,-1.392 C 2.687,16.382 3.961,15.093 4.89,13.441 5.816,11.791 6.28,9.93 6.28,7.857 6.28,5.783 5.816,3.922 4.89,2.271 3.961,0.62 2.687,-0.668 1.064,-1.595 c -1.624,-0.928 -3.444,-1.39 -5.462,-1.39 -2.02,0 -3.841,0.462 -5.462,1.39"
             style="fill:#5d77a0;fill-opacity:1;fill-rule:nonzero;stroke:none;stroke-width:40.1978"
             id="path4102" /></g><g
           id="g4104"
           transform="translate(1059.085,383.4951)"
           style="stroke-width:40.1978"><path
             d="M 0,0 C 1.336,0.722 2.379,1.731 3.131,3.028 3.88,4.322 4.255,5.804 4.255,7.468 4.255,9.13 3.88,10.604 3.131,11.886 2.379,13.168 1.336,14.17 0,14.894 c -1.336,0.721 -2.837,1.084 -4.501,1.084 -1.665,0 -3.157,-0.363 -4.48,-1.084 -1.324,-0.724 -2.361,-1.726 -3.11,-3.008 -0.75,-1.282 -1.125,-2.756 -1.125,-4.418 0,-1.664 0.375,-3.146 1.125,-4.44 0.749,-1.297 1.786,-2.306 3.11,-3.028 1.323,-0.723 2.815,-1.085 4.48,-1.085 1.664,0 3.165,0.362 4.501,1.085 M 6.26,17.654 V -1.412 c 0,-3.546 -0.86,-6.164 -2.578,-7.856 -1.719,-1.691 -4.309,-2.537 -7.774,-2.537 -1.964,0 -3.819,0.301 -5.563,0.901 -1.748,0.6 -3.152,1.432 -4.215,2.495 l 1.103,1.555 c 1.065,-0.982 2.346,-1.746 3.847,-2.292 1.5,-0.545 3.095,-0.817 4.786,-0.817 2.838,0 4.939,0.674 6.302,2.025 1.363,1.35 2.047,3.444 2.047,6.28 V 1.943 C 3.341,0.389 2.128,-0.812 0.572,-1.658 c -1.554,-0.845 -3.301,-1.268 -5.237,-1.268 -1.992,0 -3.799,0.443 -5.42,1.329 -1.624,0.887 -2.899,2.121 -3.827,3.704 -0.927,1.581 -1.391,3.369 -1.391,5.361 0,1.99 0.464,3.776 1.391,5.359 0.928,1.582 2.203,2.81 3.827,3.682 1.621,0.874 3.428,1.31 5.42,1.31 1.964,0 3.737,-0.436 5.319,-1.31 1.581,-0.872 2.796,-2.1 3.642,-3.682 v 4.827 z"
             style="fill:#5d77a0;fill-opacity:1;fill-rule:nonzero;stroke:none;stroke-width:40.1978"
             id="path4106" /></g><g
           id="g4108"
           transform="translate(1084.5957,382.5332)"
           style="stroke-width:40.1978"><path
             d="M 0,0 C 1.24,0.819 2.174,2.005 2.803,3.561 V 7.57 h -7.284 c -2.101,0 -3.621,-0.383 -4.561,-1.145 -0.941,-0.765 -1.412,-1.815 -1.412,-3.152 0,-1.391 0.517,-2.49 1.555,-3.294 1.035,-0.804 2.495,-1.207 4.378,-1.207 1.773,0 3.28,0.41 4.521,1.228 m 2.72,16.755 c 1.419,-1.35 2.128,-3.334 2.128,-5.952 V -2.741 H 2.885 V 1.063 C 2.201,-0.19 1.206,-1.166 -0.103,-1.862 -1.412,-2.557 -2.98,-2.904 -4.808,-2.904 c -2.373,0 -4.249,0.558 -5.627,1.676 -1.378,1.119 -2.065,2.591 -2.065,4.42 0,1.772 0.634,3.211 1.902,4.317 1.269,1.104 3.294,1.657 6.077,1.657 h 7.324 v 1.718 c 0,1.991 -0.54,3.505 -1.617,4.542 -1.077,1.037 -2.653,1.555 -4.726,1.555 -1.418,0 -2.775,-0.247 -4.07,-0.738 -1.296,-0.491 -2.395,-1.145 -3.294,-1.963 l -1.023,1.472 c 1.063,0.955 2.345,1.699 3.846,2.231 1.499,0.532 3.068,0.798 4.706,0.798 2.645,0 4.677,-0.676 6.095,-2.026"
             style="fill:#5d77a0;fill-opacity:1;fill-rule:nonzero;stroke:none;stroke-width:40.1978"
             id="path4110" /></g><g
           id="g4112"
           transform="translate(1110.6582,382.6143)"
           style="stroke-width:40.1978"><path
             d="m 0,0 c 1.295,0.764 2.317,1.828 3.069,3.192 0.749,1.364 1.124,2.919 1.124,4.665 0,1.745 -0.375,3.3 -1.124,4.664 -0.752,1.364 -1.774,2.428 -3.069,3.192 -1.296,0.763 -2.763,1.145 -4.398,1.145 -1.637,0 -3.104,-0.382 -4.4,-1.145 -1.296,-0.764 -2.318,-1.828 -3.067,-3.192 -0.751,-1.364 -1.126,-2.919 -1.126,-4.664 0,-1.746 0.375,-3.301 1.126,-4.665 0.749,-1.364 1.771,-2.428 3.067,-3.192 1.296,-0.763 2.763,-1.146 4.4,-1.146 1.635,0 3.102,0.383 4.398,1.146 M 6.24,27.538 V -2.822 H 4.235 V 2.21 C 3.389,0.546 2.203,-0.735 0.675,-1.635 c -1.529,-0.901 -3.26,-1.35 -5.196,-1.35 -1.993,0 -3.792,0.462 -5.401,1.39 -1.609,0.927 -2.871,2.21 -3.785,3.847 -0.914,1.636 -1.371,3.504 -1.371,5.605 0,2.1 0.457,3.974 1.371,5.625 0.914,1.651 2.176,2.932 3.785,3.847 1.609,0.913 3.408,1.371 5.401,1.371 1.909,0 3.621,-0.451 5.134,-1.35 1.514,-0.901 2.707,-2.156 3.58,-3.766 v 13.954 z"
             style="fill:#5d77a0;fill-opacity:1;fill-rule:nonzero;stroke:none;stroke-width:40.1978"
             id="path4114" /></g><g
           id="g4116"
           transform="translate(1138.2764,382.6143)"
           style="stroke-width:40.1978"><path
             d="m 0,0 c 1.294,0.764 2.317,1.828 3.068,3.192 0.749,1.364 1.125,2.919 1.125,4.665 0,1.745 -0.376,3.3 -1.125,4.664 -0.751,1.364 -1.774,2.428 -3.068,3.192 -1.297,0.763 -2.763,1.145 -4.398,1.145 -1.637,0 -3.104,-0.382 -4.4,-1.145 -1.296,-0.764 -2.319,-1.828 -3.068,-3.192 -0.75,-1.364 -1.125,-2.919 -1.125,-4.664 0,-1.746 0.375,-3.301 1.125,-4.665 0.749,-1.364 1.772,-2.428 3.068,-3.192 1.296,-0.763 2.763,-1.146 4.4,-1.146 1.635,0 3.101,0.383 4.398,1.146 m -9.86,-1.595 c -1.624,0.927 -2.9,2.215 -3.828,3.866 -0.926,1.651 -1.39,3.512 -1.39,5.586 0,2.073 0.464,3.934 1.39,5.584 0.928,1.652 2.204,2.941 3.828,3.867 1.621,0.928 3.442,1.392 5.462,1.392 2.017,0 3.837,-0.464 5.461,-1.392 C 2.687,16.382 3.961,15.093 4.889,13.441 5.815,11.791 6.279,9.93 6.279,7.857 6.279,5.783 5.815,3.922 4.889,2.271 3.961,0.62 2.687,-0.668 1.063,-1.595 c -1.624,-0.928 -3.444,-1.39 -5.461,-1.39 -2.02,0 -3.841,0.462 -5.462,1.39"
             style="fill:#5d77a0;fill-opacity:1;fill-rule:nonzero;stroke:none;stroke-width:40.1978"
             id="path4118" /></g><g
           id="g4120"
           transform="translate(1151.3887,380.4062)"
           style="stroke-width:40.1978"><path
             d="m 0,0 c -1.554,0.517 -2.769,1.172 -3.641,1.964 l 0.942,1.637 C -1.827,2.863 -0.701,2.25 0.676,1.759 2.053,1.268 3.492,1.022 4.993,1.022 c 2.153,0 3.743,0.354 4.766,1.065 1.022,0.709 1.534,1.689 1.534,2.945 0,0.9 -0.279,1.609 -0.838,2.127 C 9.895,7.678 9.206,8.061 8.389,8.305 7.57,8.552 6.437,8.81 4.993,9.083 3.302,9.382 1.937,9.71 0.901,10.065 c -1.037,0.354 -1.923,0.927 -2.66,1.719 -0.737,0.79 -1.105,1.882 -1.105,3.273 0,1.691 0.702,3.089 2.108,4.194 1.403,1.104 3.402,1.657 5.993,1.657 1.364,0 2.714,-0.192 4.052,-0.573 1.335,-0.382 2.426,-0.888 3.273,-1.514 l -0.941,-1.636 c -0.874,0.627 -1.869,1.104 -2.988,1.431 -1.118,0.327 -2.264,0.492 -3.436,0.492 -1.992,0 -3.493,-0.37 -4.501,-1.106 -1.009,-0.735 -1.513,-1.704 -1.513,-2.904 0,-0.955 0.286,-1.699 0.859,-2.23 C 0.614,12.335 1.316,11.94 2.148,11.681 2.98,11.422 4.146,11.143 5.647,10.842 7.31,10.542 8.654,10.222 9.678,9.881 10.7,9.54 11.566,8.987 12.275,8.224 12.984,7.46 13.339,6.409 13.339,5.073 13.339,3.3 12.604,1.882 11.13,0.817 9.657,-0.246 7.584,-0.777 4.911,-0.777 3.192,-0.777 1.556,-0.519 0,0"
             style="fill:#5d77a0;fill-opacity:1;fill-rule:nonzero;stroke:none;stroke-width:40.1978"
             id="path4122" /></g><g
           id="g4124"
           transform="translate(800.394,510.4717)"
           style="stroke-width:40.1978"><path
             d="m 0,0 c 1.292,0 2.346,-0.578 3.162,-1.734 0.408,-0.613 0.613,-1.26 0.613,-1.939 0,-1.497 -0.918,-2.823 -2.755,-3.978 -1.428,-0.886 -3.876,-1.974 -7.344,-3.265 -5.102,-2.04 -9.489,-3.979 -13.16,-5.815 l -0.715,1.326 c 2.788,2.108 5.186,4.064 7.192,5.866 2.005,1.802 3.247,2.907 3.724,3.315 2.514,2.38 4.59,4.115 6.222,5.203 C -1.974,-0.342 -0.954,0 0,0 m -5.305,-64.679 -11.527,25.912 -11.631,-25.912 z m 24.076,-22.238 v -2.041 c -2.721,0.203 -6.36,0.307 -10.916,0.307 -5.85,0 -10.201,-0.104 -13.058,-0.307 v 2.041 c 2.516,0.135 4.37,0.474 5.559,1.02 1.191,0.543 1.787,1.461 1.787,2.753 0,1.087 -0.477,2.687 -1.428,4.795 l -5.203,11.631 h -24.791 l -3.469,-7.652 c -1.157,-2.652 -1.732,-4.829 -1.732,-6.529 0,-1.769 0.626,-3.147 1.885,-4.132 1.258,-0.987 3.282,-1.615 6.072,-1.886 v -2.041 c -2.041,0.203 -5.136,0.307 -9.284,0.307 -4.15,0 -7.108,-0.104 -8.876,-0.307 v 2.041 c 1.836,0.474 3.4,1.512 4.693,3.11 1.292,1.597 2.515,3.724 3.672,6.376 l 22.547,51.008 h 1.63 l 23.873,-53.965 c 1.836,-4.217 4.182,-6.394 7.039,-6.529"
             style="fill:#263049;fill-opacity:1;fill-rule:nonzero;stroke:none;stroke-width:40.1978"
             id="path4126" /></g><g
           id="g4128"
           transform="translate(849.1577,481.499)"
           style="stroke-width:40.1978"><path
             d="M 0,0 C -2.449,-0.137 -4.233,-0.407 -5.356,-0.815 -6.478,-1.224 -7.244,-2.008 -7.651,-3.163 -8.059,-4.32 -8.264,-6.189 -8.264,-8.772 v -40.399 c 0,-2.587 0.205,-4.456 0.613,-5.611 0.407,-1.157 1.173,-1.922 2.295,-2.296 1.123,-0.374 2.907,-0.562 5.356,-0.562 h 6.427 c 4.692,0 8.347,1.394 10.967,4.184 2.617,2.788 4.199,7.411 4.743,13.873 h 2.347 c -0.205,-2.108 -0.306,-4.896 -0.306,-8.365 0,-3.536 0.238,-7.549 0.714,-12.037 -4.422,0.203 -11.87,0.306 -22.341,0.306 -12.583,0 -22.104,-0.103 -28.565,-0.306 v 2.041 c 2.448,0.134 4.234,0.408 5.355,0.816 1.123,0.406 1.888,1.189 2.296,2.346 0.408,1.155 0.613,3.024 0.613,5.611 v 40.399 c 0,2.583 -0.205,4.452 -0.613,5.609 -0.408,1.155 -1.173,1.939 -2.296,2.348 -1.121,0.408 -2.907,0.678 -5.355,0.815 v 2.04 c 2.856,-0.203 7.208,-0.306 13.057,-0.306 5.441,0 9.759,0.103 12.957,0.306 z"
             style="fill:#263049;fill-opacity:1;fill-rule:nonzero;stroke:none;stroke-width:40.1978"
             id="path4130" /></g><g
           id="g4132"
           transform="translate(934.0361,483.5391)"
           style="stroke-width:40.1978"><path
             d="M 0,0 V -2.04 C -1.905,-2.517 -3.436,-3.453 -4.592,-4.845 -5.749,-6.24 -7.075,-8.638 -8.57,-12.037 l -22.342,-50.498 h -1.631 l -23.873,53.967 c -1.836,4.215 -4.182,6.391 -7.039,6.528 V 0 c 2.788,-0.203 6.428,-0.306 10.916,-0.306 5.849,0 10.201,0.103 13.059,0.306 v -2.04 c -2.518,-0.137 -4.372,-0.477 -5.56,-1.021 -1.192,-0.543 -1.786,-1.461 -1.786,-2.753 0,-1.089 0.475,-2.689 1.428,-4.795 l 17.546,-39.582 15.202,33.869 c 1.698,3.672 2.55,6.561 2.55,8.672 0,1.903 -0.663,3.279 -1.989,4.131 -1.326,0.849 -3.351,1.342 -6.071,1.479 V 0 c 2.041,-0.203 5.816,-0.306 11.324,-0.306 2.857,0 5.134,0.103 6.836,0.306"
             style="fill:#263049;fill-opacity:1;fill-rule:nonzero;stroke:none;stroke-width:40.1978"
             id="path4134" /></g><g
           id="g4136"
           transform="translate(963.417,445.793)"
           style="stroke-width:40.1978"><path
             d="M 0,0 -11.528,25.912 -23.158,0 Z m 24.075,-22.238 v -2.041 c -2.721,0.203 -6.359,0.306 -10.915,0.306 -5.85,0 -10.202,-0.103 -13.058,-0.306 v 2.041 c 2.515,0.134 4.369,0.473 5.559,1.019 1.191,0.544 1.786,1.462 1.786,2.754 0,1.087 -0.477,2.687 -1.428,4.795 L 0.816,-2.039 h -24.791 l -3.468,-7.652 c -1.158,-2.653 -1.733,-4.83 -1.733,-6.53 0,-1.768 0.627,-3.146 1.886,-4.132 1.257,-0.986 3.281,-1.615 6.071,-1.885 v -2.041 c -2.041,0.203 -5.136,0.306 -9.283,0.306 -4.151,0 -7.108,-0.103 -8.877,-0.306 v 2.041 c 1.836,0.473 3.4,1.511 4.693,3.11 1.292,1.597 2.515,3.724 3.672,6.376 l 22.547,51.008 h 1.631 l 23.872,-53.965 c 1.837,-4.218 4.183,-6.395 7.039,-6.529"
             style="fill:#263049;fill-opacity:1;fill-rule:nonzero;stroke:none;stroke-width:40.1978"
             id="path4138" /></g><g
           id="g4140"
           transform="translate(1011.6191,480.7852)"
           style="stroke-width:40.1978"><path
             d="m 0,0 c -0.918,-0.478 -1.549,-1.326 -1.888,-2.551 -0.341,-1.224 -0.509,-3.06 -0.509,-5.508 v -20.505 h 6.834 c 5.985,0 10.082,1.274 12.293,3.825 2.21,2.551 3.316,6.173 3.316,10.864 0,4.897 -1.242,8.553 -3.724,10.968 C 13.839,-0.494 9.775,0.714 4.132,0.714 2.296,0.714 0.918,0.476 0,0 m 40.041,-54.986 c -1.293,-1.836 -2.772,-3.25 -4.437,-4.234 -1.667,-0.985 -3.657,-1.479 -5.968,-1.479 -5.713,0 -9.217,2.583 -10.508,7.752 l -3.162,12.752 c -0.954,3.808 -2.365,6.358 -4.235,7.652 -1.871,1.29 -4.641,1.938 -8.314,1.938 h -5.814 v -17.852 c 0,-2.587 0.204,-4.456 0.612,-5.611 0.407,-1.158 1.173,-1.94 2.295,-2.346 1.123,-0.408 2.907,-0.682 5.356,-0.816 v -2.041 c -3.13,0.203 -7.447,0.306 -12.957,0.306 -5.848,0 -10.201,-0.103 -13.056,-0.306 v 2.041 c 2.447,0.134 4.233,0.408 5.354,0.816 1.123,0.406 1.888,1.188 2.296,2.346 0.408,1.155 0.612,3.024 0.612,5.611 v 40.398 c 0,2.583 -0.204,4.453 -0.612,5.61 -0.408,1.155 -1.173,1.939 -2.296,2.347 -1.121,0.409 -2.907,0.679 -5.354,0.816 v 2.04 c 2.855,-0.203 7.002,-0.306 12.445,-0.306 L 2.703,2.551 c 1.156,0.065 2.483,0.101 3.979,0.101 7.616,0 13.448,-1.427 17.496,-4.285 4.046,-2.855 6.069,-6.563 6.069,-11.119 0,-3.946 -1.581,-7.549 -4.743,-10.814 -3.162,-3.264 -8.35,-5.339 -15.558,-6.223 1.361,-0.138 2.516,-0.273 3.469,-0.408 3.605,-0.544 6.46,-1.633 8.569,-3.264 2.108,-1.633 3.604,-4.252 4.489,-7.855 l 2.245,-9.284 c 0.544,-2.381 1.137,-4.064 1.785,-5.049 0.644,-0.988 1.478,-1.48 2.499,-1.48 1.699,0 3.57,1.155 5.611,3.469 z"
             style="fill:#263049;fill-opacity:1;fill-rule:nonzero;stroke:none;stroke-width:40.1978"
             id="path4142" /></g><g
           id="g4144"
           transform="translate(1106.0342,421.5137)"
           style="stroke-width:40.1978"><path
             d="M 0,0 C -4.423,0.203 -11.87,0.307 -22.342,0.307 -34.925,0.307 -44.446,0.203 -50.906,0 v 2.041 c 2.447,0.135 4.233,0.408 5.354,0.816 1.123,0.407 1.888,1.189 2.296,2.346 0.408,1.155 0.613,3.025 0.613,5.611 v 40.399 c 0,2.583 -0.205,4.452 -0.613,5.609 -0.408,1.156 -1.173,1.94 -2.296,2.348 -1.121,0.408 -2.907,0.679 -5.354,0.815 v 2.04 c 6.46,-0.203 15.981,-0.305 28.564,-0.305 9.521,0 16.286,0.102 20.301,0.305 -0.477,-4.08 -0.715,-7.753 -0.715,-11.017 0,-2.653 0.104,-4.761 0.307,-6.324 h -2.346 c -0.477,5.575 -1.65,9.468 -3.52,11.68 -1.871,2.208 -4.914,3.316 -9.13,3.316 h -7.448 c -2.449,0 -4.233,-0.188 -5.356,-0.562 -1.121,-0.374 -1.888,-1.14 -2.294,-2.296 -0.408,-1.157 -0.613,-3.026 -0.613,-5.609 V 32.236 h 8.467 c 2.176,0 3.842,0.562 5,1.685 1.155,1.121 1.937,2.346 2.345,3.672 0.408,1.326 0.782,3.009 1.123,5.05 h 2.346 c -0.203,-2.314 -0.307,-4.83 -0.307,-7.549 v -3.877 c 0,-2.653 0.205,-6.462 0.614,-11.426 h -2.348 c -0.408,3.264 -1.19,5.814 -2.346,7.65 -1.157,1.838 -3.3,2.756 -6.427,2.756 h -8.467 V 10.814 c 0,-2.586 0.205,-4.456 0.613,-5.611 0.406,-1.157 1.173,-1.922 2.294,-2.296 1.123,-0.374 2.907,-0.561 5.356,-0.561 h 7.448 c 3.399,0 6.085,0.544 8.058,1.633 1.972,1.086 3.469,2.838 4.491,5.254 1.019,2.413 1.732,5.797 2.14,10.15 h 2.348 C -0.613,17.547 -0.715,15.098 -0.715,12.037 -0.715,8.501 -0.478,4.488 0,0"
             style="fill:#263049;fill-opacity:1;fill-rule:nonzero;stroke:none;stroke-width:40.1978"
             id="path4146" /></g><g
           id="g4148"
           transform="translate(1164.1807,481.499)"
           style="stroke-width:40.1978"><path
             d="m 0,0 -36.012,-57.64 h 22.444 c 3.536,0 6.222,1.277 8.059,3.827 1.836,2.549 3.026,6.952 3.571,13.21 h 2.346 c -0.204,-2.108 -0.306,-4.896 -0.306,-8.365 0,-3.263 0.238,-6.937 0.714,-11.017 -4.83,0.203 -12.957,0.306 -24.381,0.306 -10.882,0 -18.806,-0.103 -23.77,-0.306 v 2.041 l 36.011,57.638 h -21.423 c -3.536,0 -6.223,-1.276 -8.06,-3.825 -1.836,-2.551 -3.027,-6.955 -3.57,-13.212 h -2.347 c 0.204,2.175 0.307,4.964 0.307,8.365 0,3.265 -0.239,6.938 -0.714,11.018 4.828,-0.203 12.955,-0.306 24.381,-0.306 10.406,0 17.988,0.103 22.75,0.306 z"
             style="fill:#263049;fill-opacity:1;fill-rule:nonzero;stroke:none;stroke-width:40.1978"
             id="path4150" /></g><g
           id="g4152"
           transform="translate(1045.2549,582.4111)"
           style="stroke-width:40.1978"><path
             d="M 0,0 V 50.148 L 28.809,0 Z m -2.254,0 h -28.808 l 28.808,50.09 z m 33.448,0 c 0,0.146 -0.032,0.327 -0.13,0.478 L 1.08,52.681 c 0.357,0.181 0.69,0.361 1.047,0.568 0.982,-0.538 2.086,-0.833 3.295,-0.833 3.627,0 6.565,2.68 6.565,5.961 0,3.311 -2.938,5.991 -6.565,5.991 -3.596,0 -6.526,-2.68 -6.526,-5.991 0,-0.297 0.026,-0.598 0.058,-0.865 -6.102,-2.951 -11.985,-4.65 -19.306,-4.889 -8.681,-0.269 -15.709,3.638 -22.89,7.691 -5.194,2.923 -11.206,5.697 -17.35,7.782 0.268,-1.16 0.431,-2.383 0.431,-3.635 0,-2.389 -0.561,-4.652 -1.535,-6.682 6.492,-2.175 12.83,-5.156 18.454,-7.961 7.547,-3.815 16.488,-5.066 22.405,-4.559 5.29,0.476 10.549,2.117 15.774,4.413 L -33.319,0.478 C -33.416,0.327 -33.448,0.146 -33.448,0 h -3.294 v -5.039 h 4.438 c 4.836,-11.45 16.951,-19.561 31.2,-19.561 14.234,0 26.382,8.111 31.153,19.561 h 4.48 V 0 Z"
             style="fill:#accded;fill-opacity:1;fill-rule:nonzero;stroke:none;stroke-width:40.1978"
             id="path4154" /></g><g
           id="g4156"
           transform="translate(919.7944,582.4111)"
           style="stroke-width:40.1978"><path
             d="m 0,0 h -28.776 v 50.09 z m -31.031,0 h -28.808 l 28.808,50.148 z m 42.594,49.818 c 5.591,2.805 11.96,5.786 18.42,7.961 -0.941,2.03 -1.501,4.293 -1.501,6.682 0,1.252 0.17,2.475 0.43,3.635 -6.143,-2.085 -12.156,-4.859 -17.349,-7.782 -7.182,-4.053 -14.241,-7.96 -22.893,-7.691 -7.091,0.239 -12.837,1.847 -18.72,4.622 0.097,0.355 0.13,0.744 0.13,1.132 0,3.311 -2.938,5.991 -6.533,5.991 -3.626,0 -6.564,-2.68 -6.564,-5.991 0,-3.281 2.938,-5.961 6.564,-5.961 1.08,0 2.094,0.239 2.978,0.654 0.423,-0.238 0.813,-0.447 1.235,-0.654 L -62.086,0.478 C -62.185,0.327 -62.217,0.146 -62.217,0 h -3.334 v -5.039 h 4.438 c 4.835,-11.45 16.993,-19.561 31.193,-19.561 14.241,0 26.39,8.111 31.194,19.561 H 5.72 V 0 H 2.385 c 0,0.146 -0.032,0.327 -0.13,0.478 l -28.028,48.835 c 4.965,-2.116 9.931,-3.607 14.93,-4.054 5.908,-0.507 14.826,0.744 22.406,4.559"
             style="fill:#accded;fill-opacity:1;fill-rule:nonzero;stroke:none;stroke-width:40.1978"
             id="path4158" /></g><g
           id="g4160"
           transform="translate(974.9863,656.5996)"
           style="stroke-width:40.1978"><path
             d="m 0,0 v 10.682 c 2.359,0.191 4.187,1.986 4.187,4.16 0,2.091 -1.596,3.78 -3.794,4.118 1.319,1.583 2.059,3.568 2.059,5.722 0,5.425 -4.834,9.796 -10.779,9.796 -5.944,0 -10.732,-4.371 -10.732,-9.796 0,-2.154 0.74,-4.139 2.011,-5.722 -2.15,-0.338 -3.77,-2.069 -3.77,-4.118 0,-2.174 1.828,-3.969 4.21,-4.16 V 0 c -3.168,-2.281 -5.205,-5.786 -5.205,-9.734 0,-3.97 2.037,-7.475 5.205,-9.734 H 0 c 3.169,2.259 5.204,5.764 5.204,9.734 C 5.204,-5.786 3.169,-2.281 0,0"
             style="fill:#accded;fill-opacity:1;fill-rule:nonzero;stroke:none;stroke-width:40.1978"
             id="path4162" /></g><g
           id="g4164"
           transform="translate(968.0527,549.9287)"
           style="stroke-width:40.1978"><path
             d="M 0,0 -25.335,56.945 -50.894,0 Z m 52.909,-48.875 v -4.484 c -5.978,0.448 -13.976,0.672 -23.988,0.672 -12.857,0 -22.421,-0.224 -28.697,-0.672 v 4.484 c 5.527,0.298 9.602,1.044 12.218,2.241 2.614,1.195 3.923,3.212 3.923,6.054 0,2.389 -1.047,5.903 -3.137,10.538 L 1.793,-4.484 h -54.48 l -7.623,-16.815 c -2.544,-5.829 -3.811,-10.615 -3.811,-14.348 0,-3.889 1.381,-6.916 4.148,-9.081 2.764,-2.168 7.209,-3.551 13.339,-4.147 v -4.484 c -4.484,0.448 -11.287,0.672 -20.401,0.672 -9.119,0 -15.621,-0.224 -19.506,-0.672 v 4.484 c 4.036,1.044 7.473,3.324 10.313,6.838 2.838,3.509 5.528,8.183 8.071,14.013 L -18.61,84.074 h 3.588 l 52.462,-118.6 c 4.036,-9.269 9.193,-14.051 15.469,-14.349"
             style="fill:#5d77a0;fill-opacity:1;fill-rule:nonzero;stroke:none;stroke-width:40.1978"
             id="path4166" /></g><g
           id="g4168"
           transform="translate(997.7539,549.4233)"
           style="stroke-width:40.1978"><path
             d="M 0,0 -25.335,56.945 -50.893,0 Z m 52.91,-48.875 v -4.485 c -5.979,0.448 -13.976,0.674 -23.989,0.674 -12.857,0 -22.42,-0.226 -28.697,-0.674 v 4.485 c 5.528,0.297 9.602,1.043 12.218,2.241 2.615,1.194 3.923,3.213 3.923,6.053 0,2.389 -1.047,5.904 -3.137,10.539 L 1.793,-4.484 h -54.479 l -7.624,-16.815 c -2.543,-5.829 -3.811,-10.616 -3.811,-14.349 0,-3.889 1.381,-6.914 4.148,-9.08 2.764,-2.168 7.21,-3.552 13.339,-4.147 v -4.485 c -4.484,0.448 -11.286,0.674 -20.401,0.674 -9.118,0 -15.62,-0.226 -19.506,-0.674 v 4.485 c 4.036,1.043 7.473,3.324 10.313,6.838 2.839,3.509 5.528,8.182 8.072,14.012 l 49.547,112.098 h 3.588 l 52.462,-118.6 c 4.035,-9.268 9.192,-14.051 15.469,-14.348"
             style="fill:#263049;fill-opacity:1;fill-rule:nonzero;stroke:none;stroke-width:40.1978"
             id="path4170" /></g><g
           id="g4172"
           transform="translate(1007.3906,511.0869)"
           style="stroke-width:40.1978"><path
             d="m 0,0 c -2.648,-0.181 -5.351,0.244 -8.014,0.1 -4.924,-0.269 -9.799,-0.647 -14.732,-0.685 0.062,-0.478 0.105,-0.934 0.105,-1.343 0,-2.785 -1.285,-4.762 -3.846,-5.933 -2.565,-1.175 -6.558,-1.907 -11.977,-2.198 v -4.395 c 6.153,0.439 15.527,0.659 28.13,0.659 9.813,0 17.652,-0.22 23.514,-0.659 v 4.395 C 8.01,-9.813 3.618,-6.453 0,0"
             style="fill:#5d77a0;fill-opacity:1;fill-rule:nonzero;stroke:none;stroke-width:40.1978"
             id="path4174" /></g><g
           id="g4176"
           transform="translate(976.248,581.3701)"
           style="stroke-width:40.1978"><path
             d="m 0,0 -18.683,-8.11 -9.973,22.974 18.683,8.11 z"
             style="fill:#5d77a0;fill-opacity:1;fill-rule:nonzero;stroke:none;stroke-width:40.1978"
             id="path4178" /></g></g></g></g></svg>
