<?xml version="1.0" encoding="UTF-8" standalone="no"?>
<svg
   xmlns:dc="http://purl.org/dc/elements/1.1/"
   xmlns:cc="http://creativecommons.org/ns#"
   xmlns:rdf="http://www.w3.org/1999/02/22-rdf-syntax-ns#"
   xmlns:svg="http://www.w3.org/2000/svg"
   xmlns="http://www.w3.org/2000/svg"
   xmlns:sodipodi="http://sodipodi.sourceforge.net/DTD/sodipodi-0.dtd"
   xmlns:inkscape="http://www.inkscape.org/namespaces/inkscape"
   width="800"
   height="640"
   viewBox="0 0 211.66667 169.33333"
   version="1.1"
   id="svg378"
   inkscape:version="1.0.2 (e86c870879, 2021-01-15)"
   sodipodi:docname="logo-800x640.svg">
  <defs
     id="defs372">
    <clipPath
       clipPathUnits="userSpaceOnUse"
       id="clipPath176">
      <path
         d="M 0,1080 H 1920 V 0 H 0 Z"
         id="path174" />
    </clipPath>
  </defs>
  <sodipodi:namedview
     id="base"
     pagecolor="#ffffff"
     bordercolor="#666666"
     borderopacity="1.0"
     inkscape:pageopacity="0.0"
     inkscape:pageshadow="2"
     inkscape:zoom="0.46767187"
     inkscape:cx="506.30283"
     inkscape:cy="381.45584"
     inkscape:document-units="mm"
     inkscape:current-layer="g170"
     inkscape:document-rotation="0"
     showgrid="false"
     units="px"
     showguides="false"
     inkscape:snap-center="true"
     inkscape:snap-object-midpoints="false"
     inkscape:window-width="1366"
     inkscape:window-height="710"
     inkscape:window-x="1366"
     inkscape:window-y="27"
     inkscape:window-maximized="1" />
  <metadata
     id="metadata375">
    <rdf:RDF>
      <cc:Work
         rdf:about="">
        <dc:format>image/svg+xml</dc:format>
        <dc:type
           rdf:resource="http://purl.org/dc/dcmitype/StillImage" />
        <dc:title></dc:title>
      </cc:Work>
    </rdf:RDF>
  </metadata>
  <g
     inkscape:label="Capa 1"
     inkscape:groupmode="layer"
     id="layer1">
    <g
       id="g170"
       transform="matrix(0.35277777,0,0,-0.35277777,-104.65067,319.63879)">
      <g
         id="g172"
         clip-path="url(#clipPath176)"
         transform="translate(10.923682,130.54573)">
        <g
           id="g178"
           transform="translate(326.0835,327.2793)">
          <path
             d="m 0,0 c 2.01,1.359 3.016,3.456 3.016,6.291 0,2.833 -1.006,4.92 -3.016,6.261 -2.011,1.339 -4.968,2.011 -8.875,2.011 H -23.864 V -2.038 h 14.989 c 3.907,0 6.864,0.68 8.875,2.038 M -23.864,33.114 V 17.089 h 13.727 c 3.522,0 6.23,0.68 8.126,2.039 1.896,1.359 2.843,3.359 2.843,6.001 0,2.603 -0.947,4.586 -2.843,5.945 -1.896,1.359 -4.604,2.04 -8.126,2.04 z M 3.677,12.781 C 5.189,11.058 5.945,8.818 5.945,6.06 5.945,2.652 4.7,0.03 2.211,-1.809 -0.278,-3.646 -3.973,-4.565 -8.875,-4.565 h -17.92 v 40.207 h 16.773 c 4.364,0 7.762,-0.891 10.195,-2.672 2.431,-1.78 3.647,-4.317 3.647,-7.61 0,-2.298 -0.604,-4.232 -1.81,-5.802 -1.206,-1.57 -2.843,-2.7 -4.911,-3.387 2.873,-0.537 5.064,-1.667 6.578,-3.39"
             style="fill:#9d9c9a;fill-opacity:1;fill-rule:nonzero;stroke:none"
             id="path180" />
        </g>
        <g
           id="g182"
           transform="translate(367.812,352.6963)">
          <path
             d="m 0,0 v -29.982 h -2.758 v 6.433 c -0.995,-2.107 -2.469,-3.743 -4.423,-4.911 -1.952,-1.169 -4.25,-1.752 -6.892,-1.752 -3.906,0 -6.97,1.092 -9.19,3.274 -2.221,2.183 -3.331,5.321 -3.331,9.42 V 0 h 2.871 v -17.288 c 0,-3.37 0.862,-5.938 2.585,-7.696 1.723,-1.763 4.154,-2.644 7.294,-2.644 3.37,0 6.042,1.054 8.014,3.16 1.972,2.106 2.957,4.94 2.957,8.5 V 0 Z"
             style="fill:#9d9c9a;fill-opacity:1;fill-rule:nonzero;stroke:none"
             id="path184" />
        </g>
        <g
           id="g186"
           transform="translate(383.377,357.0625)">
          <path
             d="m 0,0 v -4.366 h 9.592 v -2.47 H 0.059 v -27.513 h -2.873 v 27.513 h -5.515 v 2.47 h 5.515 v 4.595 c 0,2.528 0.727,4.538 2.183,6.032 C 0.822,7.754 2.871,8.5 5.515,8.5 6.663,8.5 7.763,8.337 8.816,8.012 9.87,7.686 10.74,7.197 11.43,6.548 L 10.282,4.364 C 9.055,5.475 7.505,6.029 5.629,6.029 1.876,6.029 0,4.019 0,0"
             style="fill:#9d9c9a;fill-opacity:1;fill-rule:nonzero;stroke:none"
             id="path188" />
        </g>
        <g
           id="g190"
           transform="translate(403.7109,348.9922)">
          <path
             d="m 0,0 c -1.685,-0.938 -3.036,-2.26 -4.049,-3.964 -1.015,-1.703 -1.6,-3.629 -1.753,-5.772 h 22.975 c -0.114,2.143 -0.69,4.059 -1.723,5.744 -1.033,1.684 -2.392,3.006 -4.077,3.963 C 9.686,0.927 7.792,1.407 5.686,1.407 3.581,1.407 1.685,0.937 0,0 m 19.932,-11.976 h -25.79 c 0.076,-2.336 0.669,-4.415 1.778,-6.232 1.112,-1.819 2.614,-3.227 4.51,-4.223 1.896,-0.995 4.031,-1.493 6.405,-1.493 1.953,0 3.762,0.354 5.429,1.064 1.664,0.708 3.051,1.751 4.163,3.13 l 1.665,-1.896 c -1.301,-1.57 -2.94,-2.776 -4.91,-3.619 -1.974,-0.842 -4.107,-1.263 -6.405,-1.263 -2.985,0 -5.65,0.65 -7.984,1.952 -2.335,1.301 -4.163,3.103 -5.484,5.401 -1.323,2.296 -1.982,4.92 -1.982,7.869 0,2.909 0.621,5.522 1.865,7.839 1.245,2.317 2.96,4.127 5.141,5.427 2.184,1.303 4.634,1.955 7.353,1.955 2.717,0 5.16,-0.644 7.323,-1.924 2.164,-1.284 3.866,-3.074 5.113,-5.372 1.242,-2.298 1.866,-4.902 1.866,-7.811 z"
             style="fill:#9d9c9a;fill-opacity:1;fill-rule:nonzero;stroke:none"
             id="path192" />
        </g>
        <g
           id="g194"
           transform="translate(447.4761,324.6094)">
          <path
             d="m 0,0 c -0.728,-0.689 -1.636,-1.216 -2.728,-1.58 -1.092,-0.363 -2.231,-0.545 -3.418,-0.545 -2.604,0 -4.614,0.718 -6.031,2.153 -1.418,1.436 -2.125,3.437 -2.125,6.004 v 19.585 h -5.515 v 2.47 h 5.515 v 6.548 h 2.873 v -6.548 h 9.533 v -2.47 h -9.533 v -19.3 c 0,-1.952 0.468,-3.435 1.407,-4.451 0.937,-1.015 2.326,-1.521 4.164,-1.521 1.876,0 3.425,0.554 4.652,1.666 z"
             style="fill:#9d9c9a;fill-opacity:1;fill-rule:nonzero;stroke:none"
             id="path196" />
        </g>
        <g
           id="g198"
           transform="translate(459.7681,348.9922)">
          <path
             d="m 0,0 c -1.685,-0.938 -3.036,-2.26 -4.049,-3.964 -1.015,-1.703 -1.6,-3.629 -1.753,-5.772 h 22.975 c -0.114,2.143 -0.689,4.059 -1.723,5.744 -1.033,1.684 -2.392,3.006 -4.077,3.963 C 9.687,0.927 7.792,1.407 5.686,1.407 3.581,1.407 1.685,0.937 0,0 m 19.932,-11.976 h -25.79 c 0.076,-2.336 0.669,-4.415 1.779,-6.232 1.112,-1.819 2.614,-3.227 4.509,-4.223 1.896,-0.995 4.031,-1.493 6.405,-1.493 1.953,0 3.762,0.354 5.429,1.064 1.664,0.708 3.051,1.751 4.163,3.13 l 1.665,-1.896 c -1.3,-1.57 -2.939,-2.776 -4.909,-3.619 -1.975,-0.842 -4.108,-1.263 -6.406,-1.263 -2.985,0 -5.649,0.65 -7.983,1.952 -2.336,1.301 -4.164,3.103 -5.485,5.401 -1.323,2.296 -1.982,4.92 -1.982,7.869 0,2.909 0.621,5.522 1.866,7.839 1.244,2.317 2.959,4.127 5.14,5.427 2.184,1.303 4.634,1.955 7.353,1.955 2.718,0 5.161,-0.644 7.324,-1.924 2.163,-1.284 3.866,-3.074 5.112,-5.372 1.243,-2.298 1.866,-4.902 1.866,-7.811 z"
             style="fill:#9d9c9a;fill-opacity:1;fill-rule:nonzero;stroke:none"
             id="path200" />
        </g>
        <g
           id="g202"
           transform="translate(521.312,326.6768)">
          <path
             d="m 0,0 c 1.817,1.071 3.253,2.565 4.309,4.481 1.051,1.915 1.578,4.097 1.578,6.548 0,2.449 -0.527,4.632 -1.578,6.548 -1.056,1.914 -2.492,3.408 -4.309,4.48 -1.819,1.071 -3.878,1.608 -6.174,1.608 -2.298,0 -4.357,-0.537 -6.176,-1.608 -1.819,-1.072 -3.255,-2.566 -4.307,-4.48 -1.053,-1.916 -1.58,-4.099 -1.58,-6.548 0,-2.451 0.527,-4.633 1.58,-6.548 1.052,-1.916 2.488,-3.41 4.307,-4.481 1.819,-1.071 3.878,-1.608 6.176,-1.608 2.296,0 4.355,0.537 6.174,1.608 M 8.76,38.657 V -3.963 H 5.945 V 3.102 C 4.757,0.766 3.092,-1.033 0.947,-2.296 c -2.145,-1.265 -4.576,-1.896 -7.294,-1.896 -2.797,0 -5.324,0.649 -7.581,1.952 -2.26,1.301 -4.031,3.102 -5.314,5.4 -1.283,2.296 -1.924,4.92 -1.924,7.869 0,2.948 0.641,5.579 1.924,7.897 1.283,2.316 3.054,4.116 5.314,5.4 2.257,1.28 4.784,1.924 7.581,1.924 2.68,0 5.082,-0.633 7.207,-1.896 2.125,-1.264 3.8,-3.025 5.027,-5.285 v 19.588 z"
             style="fill:#9d9c9a;fill-opacity:1;fill-rule:nonzero;stroke:none"
             id="path204" />
        </g>
        <g
           id="g206"
           transform="translate(547.5884,348.9922)">
          <path
             d="m 0,0 c -1.685,-0.938 -3.036,-2.26 -4.049,-3.964 -1.015,-1.703 -1.6,-3.629 -1.753,-5.772 h 22.975 c -0.114,2.143 -0.689,4.059 -1.722,5.744 -1.034,1.684 -2.393,3.006 -4.077,3.963 C 9.687,0.927 7.792,1.407 5.686,1.407 3.581,1.407 1.685,0.937 0,0 m 19.932,-11.976 h -25.79 c 0.076,-2.336 0.669,-4.415 1.779,-6.232 1.112,-1.819 2.614,-3.227 4.51,-4.223 1.895,-0.995 4.03,-1.493 6.405,-1.493 1.952,0 3.761,0.354 5.428,1.064 1.665,0.708 3.052,1.751 4.164,3.13 l 1.664,-1.896 c -1.3,-1.57 -2.939,-2.776 -4.909,-3.619 -1.975,-0.842 -4.108,-1.263 -6.406,-1.263 -2.985,0 -5.649,0.65 -7.983,1.952 -2.336,1.301 -4.164,3.103 -5.484,5.401 -1.324,2.296 -1.983,4.92 -1.983,7.869 0,2.909 0.621,5.522 1.866,7.839 1.245,2.317 2.959,4.127 5.14,5.427 2.184,1.303 4.635,1.955 7.353,1.955 2.718,0 5.161,-0.644 7.324,-1.924 2.163,-1.284 3.866,-3.074 5.113,-5.372 1.242,-2.298 1.865,-4.902 1.865,-7.811 z"
             style="fill:#9d9c9a;fill-opacity:1;fill-rule:nonzero;stroke:none"
             id="path208" />
        </g>
        <g
           id="g210"
           transform="translate(615.938,336.5)">
          <path
             d="M 0,0 -10.569,23.204 -21.08,0 Z m 1.091,-2.472 h -23.319 l -5.112,-11.314 h -3.159 l 18.495,40.207 h 2.929 L 9.421,-13.786 H 6.26 Z"
             style="fill:#9d9c9a;fill-opacity:1;fill-rule:nonzero;stroke:none"
             id="path212" />
        </g>
        <g
           id="g214"
           transform="translate(652.8115,326.6768)">
          <path
             d="m 0,0 c 1.839,1.071 3.283,2.565 4.336,4.481 1.054,1.915 1.581,4.097 1.581,6.548 0,2.449 -0.527,4.632 -1.581,6.548 -1.053,1.914 -2.497,3.408 -4.336,4.48 -1.837,1.071 -3.904,1.608 -6.202,1.608 -2.298,0 -4.357,-0.537 -6.174,-1.608 -1.82,-1.072 -3.255,-2.566 -4.309,-4.48 -1.053,-1.916 -1.58,-4.099 -1.58,-6.548 0,-2.451 0.527,-4.633 1.58,-6.548 1.054,-1.916 2.489,-3.41 4.309,-4.481 1.817,-1.071 3.876,-1.608 6.174,-1.608 2.298,0 4.365,0.537 6.202,1.608 M 1.552,24.326 C 3.81,23.042 5.581,21.242 6.864,18.926 8.146,16.608 8.79,13.977 8.79,11.029 8.79,8.08 8.146,5.456 6.864,3.16 5.581,0.862 3.81,-0.939 1.552,-2.24 c -2.26,-1.303 -4.787,-1.952 -7.581,-1.952 -2.682,0 -5.105,0.639 -7.266,1.924 -2.165,1.283 -3.84,3.072 -5.026,5.37 v -7.065 h -2.759 v 42.62 h 2.873 V 19.186 c 1.186,2.219 2.853,3.952 4.997,5.197 2.145,1.244 4.537,1.867 7.181,1.867 2.794,0 5.321,-0.644 7.581,-1.924"
             style="fill:#9d9c9a;fill-opacity:1;fill-rule:nonzero;stroke:none"
             id="path216" />
        </g>
        <g
           id="g218"
           transform="translate(688.3945,326.6768)">
          <path
             d="m 0,0 c 1.817,1.071 3.253,2.565 4.308,4.481 1.052,1.915 1.579,4.097 1.579,6.548 0,2.449 -0.527,4.632 -1.579,6.548 -1.055,1.914 -2.491,3.408 -4.308,4.48 -1.819,1.071 -3.878,1.608 -6.174,1.608 -2.298,0 -4.357,-0.537 -6.176,-1.608 -1.82,-1.072 -3.255,-2.566 -4.307,-4.48 -1.053,-1.916 -1.58,-4.099 -1.58,-6.548 0,-2.451 0.527,-4.633 1.58,-6.548 1.052,-1.916 2.487,-3.41 4.307,-4.481 1.819,-1.071 3.878,-1.608 6.176,-1.608 2.296,0 4.355,0.537 6.174,1.608 m -13.842,-2.24 c -2.28,1.301 -4.069,3.11 -5.372,5.428 -1.301,2.317 -1.952,4.93 -1.952,7.841 0,2.909 0.651,5.523 1.952,7.839 1.303,2.318 3.092,4.127 5.372,5.428 2.276,1.303 4.833,1.954 7.668,1.954 2.833,0 5.388,-0.651 7.668,-1.954 2.277,-1.301 4.067,-3.11 5.37,-5.428 1.301,-2.316 1.952,-4.93 1.952,-7.839 C 8.816,8.118 8.165,5.505 6.864,3.188 5.561,0.87 3.771,-0.939 1.494,-2.24 c -2.28,-1.303 -4.835,-1.952 -7.668,-1.952 -2.835,0 -5.392,0.649 -7.668,1.952"
             style="fill:#9d9c9a;fill-opacity:1;fill-rule:nonzero;stroke:none"
             id="path220" />
        </g>
        <g
           id="g222"
           transform="translate(724.3213,327.9131)">
          <path
             d="m 0,0 c 1.875,1.014 3.339,2.431 4.395,4.25 1.051,1.817 1.578,3.896 1.578,6.232 0,2.334 -0.527,4.404 -1.578,6.203 -1.056,1.799 -2.52,3.207 -4.395,4.221 -1.876,1.014 -3.983,1.523 -6.319,1.523 -2.336,0 -4.431,-0.509 -6.288,-1.523 -1.858,-1.014 -3.314,-2.422 -4.365,-4.221 -1.054,-1.799 -1.581,-3.869 -1.581,-6.203 0,-2.336 0.527,-4.415 1.581,-6.232 1.051,-1.819 2.507,-3.236 4.365,-4.25 1.857,-1.016 3.952,-1.524 6.288,-1.524 2.336,0 4.443,0.508 6.319,1.524 M 8.788,24.783 V -1.982 c 0,-4.978 -1.206,-8.654 -3.619,-11.028 -2.413,-2.374 -6.05,-3.562 -10.913,-3.562 -2.756,0 -5.362,0.422 -7.811,1.264 -2.452,0.843 -4.423,2.011 -5.916,3.502 l 1.55,2.184 c 1.494,-1.379 3.293,-2.451 5.4,-3.217 2.105,-0.765 4.344,-1.147 6.719,-1.147 3.983,0 6.932,0.946 8.846,2.842 1.914,1.896 2.873,4.835 2.873,8.816 V 2.729 C 4.69,0.545 2.987,-1.14 0.804,-2.328 -1.379,-3.515 -3.83,-4.107 -6.548,-4.107 c -2.797,0 -5.334,0.621 -7.61,1.865 -2.279,1.245 -4.069,2.977 -5.372,5.199 -1.301,2.22 -1.952,4.729 -1.952,7.525 0,2.795 0.651,5.302 1.952,7.524 1.303,2.222 3.093,3.944 5.372,5.169 2.276,1.225 4.813,1.839 7.61,1.839 2.756,0 5.245,-0.614 7.466,-1.839 2.22,-1.225 3.925,-2.947 5.113,-5.169 v 6.777 z"
             style="fill:#9d9c9a;fill-opacity:1;fill-rule:nonzero;stroke:none"
             id="path224" />
        </g>
        <g
           id="g226"
           transform="translate(760.1333,326.5615)">
          <path
             d="m 0,0 c 1.741,1.15 3.052,2.815 3.935,4.998 v 5.63 H -6.291 c -2.949,0 -5.082,-0.537 -6.403,-1.608 -1.321,-1.075 -1.982,-2.548 -1.982,-4.423 0,-1.954 0.728,-3.496 2.183,-4.624 1.453,-1.13 3.502,-1.696 6.146,-1.696 2.489,0 4.604,0.576 6.347,1.723 M 3.818,23.521 C 5.81,21.627 6.806,18.841 6.806,15.165 V -3.848 H 4.049 v 5.342 c -0.959,-1.761 -2.356,-3.13 -4.194,-4.107 -1.837,-0.975 -4.039,-1.464 -6.604,-1.464 -3.332,0 -5.965,0.784 -7.899,2.354 -1.934,1.571 -2.899,3.637 -2.899,6.204 0,2.488 0.888,4.508 2.67,6.06 1.781,1.551 4.624,2.326 8.53,2.326 H 3.935 v 2.413 c 0,2.794 -0.758,4.919 -2.27,6.375 -1.512,1.455 -3.724,2.183 -6.635,2.183 -1.99,0 -3.896,-0.346 -5.714,-1.035 -1.819,-0.69 -3.361,-1.609 -4.624,-2.756 l -1.435,2.066 c 1.492,1.341 3.291,2.385 5.398,3.133 2.105,0.745 4.308,1.119 6.606,1.119 3.714,0 6.567,-0.948 8.557,-2.844"
             style="fill:#9d9c9a;fill-opacity:1;fill-rule:nonzero;stroke:none"
             id="path228" />
        </g>
        <g
           id="g230"
           transform="translate(796.7197,326.6768)">
          <path
             d="m 0,0 c 1.817,1.071 3.253,2.565 4.308,4.481 1.052,1.915 1.578,4.097 1.578,6.548 0,2.449 -0.526,4.632 -1.578,6.548 -1.055,1.914 -2.491,3.408 -4.308,4.48 -1.82,1.071 -3.878,1.608 -6.174,1.608 -2.298,0 -4.357,-0.537 -6.177,-1.608 -1.819,-1.072 -3.254,-2.566 -4.306,-4.48 -1.053,-1.916 -1.58,-4.099 -1.58,-6.548 0,-2.451 0.527,-4.633 1.58,-6.548 1.052,-1.916 2.487,-3.41 4.306,-4.481 1.82,-1.071 3.879,-1.608 6.177,-1.608 2.296,0 4.354,0.537 6.174,1.608 M 8.759,38.657 V -3.963 H 5.945 V 3.102 C 4.756,0.766 3.092,-1.033 0.947,-2.296 c -2.145,-1.265 -4.576,-1.896 -7.294,-1.896 -2.797,0 -5.324,0.649 -7.582,1.952 -2.259,1.301 -4.03,3.102 -5.313,5.4 -1.283,2.296 -1.924,4.92 -1.924,7.869 0,2.948 0.641,5.579 1.924,7.897 1.283,2.316 3.054,4.116 5.313,5.4 2.258,1.28 4.785,1.924 7.582,1.924 2.68,0 5.082,-0.633 7.207,-1.896 2.125,-1.264 3.8,-3.025 5.026,-5.285 v 19.588 z"
             style="fill:#9d9c9a;fill-opacity:1;fill-rule:nonzero;stroke:none"
             id="path232" />
        </g>
        <g
           id="g234"
           transform="translate(835.4893,326.6768)">
          <path
             d="m 0,0 c 1.817,1.071 3.252,2.565 4.308,4.481 1.052,1.915 1.578,4.097 1.578,6.548 0,2.449 -0.526,4.632 -1.578,6.548 -1.056,1.914 -2.491,3.408 -4.308,4.48 -1.82,1.071 -3.878,1.608 -6.174,1.608 -2.298,0 -4.357,-0.537 -6.177,-1.608 -1.819,-1.072 -3.254,-2.566 -4.306,-4.48 -1.053,-1.916 -1.58,-4.099 -1.58,-6.548 0,-2.451 0.527,-4.633 1.58,-6.548 1.052,-1.916 2.487,-3.41 4.306,-4.481 1.82,-1.071 3.879,-1.608 6.177,-1.608 2.296,0 4.354,0.537 6.174,1.608 m -13.842,-2.24 c -2.28,1.301 -4.069,3.11 -5.372,5.428 -1.301,2.317 -1.952,4.93 -1.952,7.841 0,2.909 0.651,5.523 1.952,7.839 1.303,2.318 3.092,4.127 5.372,5.428 2.276,1.303 4.833,1.954 7.668,1.954 2.832,0 5.388,-0.651 7.668,-1.954 2.277,-1.301 4.067,-3.11 5.369,-5.428 1.301,-2.316 1.952,-4.93 1.952,-7.839 C 8.815,8.118 8.164,5.505 6.863,3.188 5.561,0.87 3.771,-0.939 1.494,-2.24 c -2.28,-1.303 -4.836,-1.952 -7.668,-1.952 -2.835,0 -5.392,0.649 -7.668,1.952"
             style="fill:#9d9c9a;fill-opacity:1;fill-rule:nonzero;stroke:none"
             id="path236" />
        </g>
        <g
           id="g238"
           transform="translate(853.8965,323.5762)">
          <path
             d="m 0,0 c -2.181,0.727 -3.886,1.645 -5.11,2.757 l 1.32,2.298 C -2.565,4.02 -0.985,3.159 0.949,2.469 2.881,1.779 4.902,1.436 7.009,1.436 c 3.023,0 5.255,0.497 6.69,1.494 1.436,0.995 2.154,2.372 2.154,4.135 0,1.262 -0.393,2.258 -1.177,2.986 -0.785,0.727 -1.753,1.264 -2.901,1.608 -1.148,0.346 -2.738,0.707 -4.766,1.092 -2.375,0.42 -4.291,0.88 -5.744,1.379 -1.456,0.496 -2.7,1.301 -3.734,2.412 -1.035,1.11 -1.552,2.642 -1.552,4.594 0,2.375 0.985,4.337 2.959,5.888 1.971,1.551 4.775,2.327 8.415,2.327 1.914,0 3.809,-0.27 5.687,-0.804 1.874,-0.537 3.406,-1.247 4.594,-2.125 l -1.321,-2.298 c -1.227,0.88 -2.624,1.55 -4.194,2.01 -1.57,0.459 -3.178,0.689 -4.823,0.689 -2.796,0 -4.903,-0.518 -6.318,-1.552 -1.418,-1.033 -2.126,-2.392 -2.126,-4.077 0,-1.34 0.402,-2.383 1.207,-3.13 0.804,-0.748 1.789,-1.302 2.957,-1.667 1.168,-0.364 2.804,-0.755 4.911,-1.177 2.335,-0.421 4.222,-0.871 5.658,-1.35 1.436,-0.478 2.652,-1.254 3.647,-2.326 0.995,-1.071 1.494,-2.547 1.494,-4.423 0,-2.488 -1.034,-4.479 -3.102,-5.973 -2.067,-1.494 -4.978,-2.24 -8.73,-2.24 C 4.481,-1.092 2.184,-0.728 0,0"
             style="fill:#9d9c9a;fill-opacity:1;fill-rule:nonzero;stroke:none"
             id="path240" />
        </g>
        <g
           id="g242"
           transform="translate(361.1738,506.1611)">
          <path
             d="m 0,0 c 1.813,0 3.293,-0.812 4.439,-2.435 0.573,-0.86 0.86,-1.768 0.86,-2.721 0,-2.102 -1.288,-3.963 -3.868,-5.585 -2.004,-1.243 -5.44,-2.771 -10.309,-4.582 -7.162,-2.865 -13.32,-5.585 -18.475,-8.164 l -1.002,1.861 c 3.914,2.959 7.279,5.706 10.096,8.234 2.815,2.53 4.558,4.082 5.227,4.655 3.531,3.341 6.444,5.776 8.736,7.304 C -2.771,-0.48 -1.339,0 0,0 m -7.447,-90.796 -16.182,36.375 -16.327,-36.375 z m 33.798,-31.218 v -2.865 c -3.82,0.286 -8.929,0.431 -15.324,0.431 -8.213,0 -14.32,-0.145 -18.331,-0.431 v 2.865 c 3.532,0.189 6.134,0.665 7.804,1.432 1.671,0.764 2.507,2.053 2.507,3.865 0,1.527 -0.669,3.773 -2.004,6.732 l -7.304,16.327 h -34.801 l -4.869,-10.742 c -1.625,-3.724 -2.433,-6.78 -2.433,-9.166 0,-2.483 0.881,-4.416 2.648,-5.8 1.765,-1.385 4.606,-2.268 8.522,-2.648 v -2.865 c -2.865,0.286 -7.209,0.431 -13.032,0.431 -5.826,0 -9.977,-0.145 -12.46,-0.431 v 2.865 c 2.577,0.665 4.772,2.123 6.588,4.367 1.813,2.242 3.531,5.227 5.155,8.951 l 31.65,71.603 h 2.29 l 33.512,-75.756 c 2.578,-5.92 5.871,-8.976 9.882,-9.165"
             style="fill:#737479;fill-opacity:1;fill-rule:nonzero;stroke:none"
             id="path244" />
        </g>
        <g
           id="g246"
           transform="translate(429.6274,465.4902)">
          <path
             d="m 0,0 c -3.438,-0.193 -5.943,-0.573 -7.519,-1.146 -1.574,-0.573 -2.65,-1.672 -3.221,-3.295 -0.573,-1.624 -0.86,-4.248 -0.86,-7.875 v -56.711 c 0,-3.631 0.287,-6.254 0.86,-7.877 0.571,-1.624 1.647,-2.698 3.221,-3.223 1.576,-0.524 4.081,-0.788 7.519,-0.788 h 9.023 c 6.586,0 11.717,1.956 15.394,5.873 3.675,3.914 5.895,10.404 6.659,19.475 h 3.295 c -0.288,-2.959 -0.431,-6.873 -0.431,-11.743 0,-4.963 0.334,-10.597 1.004,-16.898 -6.209,0.286 -16.663,0.431 -31.363,0.431 -17.664,0 -31.03,-0.145 -40.099,-0.431 v 2.865 c 3.436,0.189 5.943,0.573 7.518,1.146 1.576,0.571 2.649,1.669 3.222,3.293 0.573,1.623 0.861,4.246 0.861,7.877 v 56.711 c 0,3.627 -0.288,6.251 -0.861,7.875 -0.573,1.623 -1.646,2.722 -3.222,3.295 -1.575,0.573 -4.082,0.953 -7.518,1.146 v 2.862 c 4.009,-0.285 10.119,-0.427 18.33,-0.427 7.637,0 13.699,0.142 18.188,0.427 z"
             style="fill:#737479;fill-opacity:1;fill-rule:nonzero;stroke:none"
             id="path248" />
        </g>
        <g
           id="g250"
           transform="translate(548.7788,468.3525)">
          <path
             d="m 0,0 v -2.862 c -2.674,-0.67 -4.823,-1.985 -6.445,-3.939 -1.625,-1.958 -3.487,-5.324 -5.586,-10.096 l -31.363,-70.889 h -2.29 l -33.512,75.758 c -2.577,5.919 -5.87,8.972 -9.881,9.166 V 0 c 3.914,-0.285 9.023,-0.428 15.324,-0.428 8.211,0 14.32,0.143 18.331,0.428 v -2.862 c -3.535,-0.194 -6.136,-0.67 -7.805,-1.434 -1.672,-0.764 -2.507,-2.053 -2.507,-3.866 0,-1.528 0.668,-3.774 2.005,-6.731 l 24.632,-55.565 21.339,47.545 c 2.384,5.155 3.58,9.212 3.58,12.174 0,2.672 -0.93,4.603 -2.792,5.8 -1.862,1.192 -4.705,1.883 -8.523,2.077 V 0 c 2.866,-0.285 8.165,-0.428 15.897,-0.428 4.011,0 7.207,0.143 9.596,0.428"
             style="fill:#737479;fill-opacity:1;fill-rule:nonzero;stroke:none"
             id="path252" />
        </g>
        <g
           id="g254"
           transform="translate(590.0229,415.3652)">
          <path
             d="M 0,0 -16.182,36.375 -32.509,0 Z m 33.798,-31.218 v -2.865 c -3.82,0.286 -8.928,0.431 -15.324,0.431 -8.212,0 -14.32,-0.145 -18.331,-0.431 v 2.865 c 3.532,0.189 6.134,0.665 7.805,1.432 1.67,0.764 2.507,2.053 2.507,3.865 0,1.526 -0.67,3.773 -2.005,6.732 L 1.146,-2.862 h -34.801 l -4.869,-10.742 c -1.624,-3.724 -2.433,-6.78 -2.433,-9.167 0,-2.482 0.881,-4.416 2.648,-5.799 1.765,-1.385 4.606,-2.268 8.522,-2.648 v -2.865 c -2.864,0.286 -7.209,0.431 -13.031,0.431 -5.827,0 -9.978,-0.145 -12.461,-0.431 v 2.865 c 2.577,0.665 4.773,2.123 6.588,4.366 1.814,2.243 3.53,5.228 5.155,8.952 l 31.65,71.603 h 2.29 l 33.513,-75.756 c 2.577,-5.92 5.87,-8.976 9.881,-9.165"
             style="fill:#737479;fill-opacity:1;fill-rule:nonzero;stroke:none"
             id="path256" />
        </g>
        <g
           id="g258"
           transform="translate(657.689,464.4873)">
          <path
             d="M 0,0 C -1.289,-0.67 -2.173,-1.862 -2.65,-3.581 -3.128,-5.3 -3.366,-7.877 -3.366,-11.313 V -40.099 H 6.23 c 8.4,0 14.152,1.789 17.256,5.37 3.102,3.581 4.654,8.666 4.654,15.251 0,6.876 -1.743,12.006 -5.227,15.396 C 19.427,-0.694 13.723,1.003 5.8,1.003 3.223,1.003 1.289,0.667 0,0 m 56.21,-77.189 c -1.815,-2.578 -3.892,-4.562 -6.231,-5.944 -2.339,-1.383 -5.132,-2.076 -8.377,-2.076 -8.019,0 -12.937,3.627 -14.75,10.882 l -4.439,17.901 c -1.34,5.346 -3.32,8.927 -5.943,10.742 -2.628,1.812 -6.516,2.72 -11.673,2.72 h -8.163 v -25.06 c 0,-3.631 0.288,-6.254 0.861,-7.877 0.571,-1.624 1.647,-2.722 3.221,-3.293 1.576,-0.573 4.081,-0.957 7.519,-1.146 v -2.865 c -4.393,0.286 -10.455,0.431 -18.189,0.431 -8.211,0 -14.32,-0.145 -18.329,-0.431 v 2.865 c 3.436,0.189 5.943,0.573 7.517,1.146 1.576,0.571 2.65,1.669 3.223,3.293 0.573,1.623 0.86,4.246 0.86,7.877 v 56.711 c 0,3.626 -0.287,6.251 -0.86,7.875 -0.573,1.623 -1.647,2.722 -3.223,3.294 -1.574,0.574 -4.081,0.954 -7.517,1.147 v 2.862 c 4.009,-0.285 9.831,-0.427 17.47,-0.427 L 3.795,3.58 c 1.623,0.093 3.485,0.143 5.586,0.143 10.691,0 18.878,-2.004 24.559,-6.015 5.68,-4.009 8.52,-9.214 8.52,-15.609 0,-5.539 -2.219,-10.598 -6.658,-15.181 -4.439,-4.582 -11.721,-7.495 -21.84,-8.735 1.911,-0.194 3.533,-0.383 4.87,-0.574 5.06,-0.763 9.069,-2.292 12.03,-4.582 2.958,-2.292 5.058,-5.968 6.301,-11.027 l 3.15,-13.031 c 0.765,-3.344 1.599,-5.706 2.507,-7.089 0.905,-1.386 2.075,-2.077 3.509,-2.077 2.384,0 5.012,1.622 7.877,4.869 z"
             style="fill:#737479;fill-opacity:1;fill-rule:nonzero;stroke:none"
             id="path260" />
        </g>
        <g
           id="g262"
           transform="translate(790.2275,381.2822)">
          <path
             d="M 0,0 C -6.208,0.286 -16.663,0.431 -31.363,0.431 -49.026,0.431 -62.392,0.286 -71.461,0 v 2.865 c 3.436,0.189 5.942,0.573 7.517,1.146 1.576,0.571 2.65,1.669 3.223,3.293 0.573,1.623 0.86,4.246 0.86,7.877 v 56.711 c 0,3.627 -0.287,6.251 -0.86,7.875 -0.573,1.623 -1.647,2.722 -3.223,3.295 -1.575,0.573 -4.081,0.953 -7.517,1.146 v 2.862 c 9.069,-0.285 22.435,-0.427 40.098,-0.427 13.366,0 22.863,0.142 28.498,0.427 -0.669,-5.727 -1.003,-10.882 -1.003,-15.466 0,-3.723 0.145,-6.682 0.43,-8.877 h -3.293 c -0.669,7.826 -2.316,13.293 -4.941,16.396 -2.626,3.101 -6.898,4.654 -12.817,4.654 h -10.454 c -3.438,0 -5.943,-0.262 -7.519,-0.788 -1.575,-0.524 -2.65,-1.599 -3.221,-3.222 -0.573,-1.624 -0.86,-4.248 -0.86,-7.875 V 45.253 h 11.885 c 3.056,0 5.394,0.788 7.018,2.364 1.623,1.574 2.721,3.294 3.294,5.155 0.573,1.862 1.097,4.224 1.576,7.089 h 3.293 c -0.286,-3.247 -0.43,-6.779 -0.43,-10.596 v -5.443 c 0,-3.723 0.287,-9.071 0.86,-16.04 h -3.295 c -0.573,4.582 -1.671,8.163 -3.293,10.74 -1.624,2.58 -4.632,3.869 -9.023,3.869 h -11.885 v -27.21 c 0,-3.631 0.287,-6.254 0.86,-7.877 0.571,-1.624 1.646,-2.698 3.221,-3.223 1.576,-0.524 4.081,-0.788 7.519,-0.788 h 10.454 c 4.773,0 8.542,0.765 11.313,2.292 2.768,1.526 4.869,3.985 6.302,7.377 1.432,3.388 2.433,8.138 3.006,14.248 h 3.295 C -0.86,24.632 -1.003,21.194 -1.003,16.898 -1.003,11.935 -0.669,6.301 0,0"
             style="fill:#737479;fill-opacity:1;fill-rule:nonzero;stroke:none"
             id="path264" />
        </g>
        <g
           id="g266"
           transform="translate(871.854,465.4902)">
          <path
             d="m 0,0 -50.553,-80.915 h 31.506 c 4.964,0 8.735,1.792 11.313,5.372 2.577,3.579 4.248,9.759 5.012,18.545 h 3.295 c -0.287,-2.96 -0.43,-6.874 -0.43,-11.743 0,-4.582 0.334,-9.739 1.003,-15.467 -6.781,0.286 -18.188,0.431 -34.228,0.431 -15.275,0 -26.399,-0.145 -33.367,-0.431 v 2.865 l 50.553,80.912 h -30.075 c -4.964,0 -8.736,-1.791 -11.313,-5.37 -2.577,-3.58 -4.25,-9.762 -5.012,-18.546 h -3.295 c 0.288,3.054 0.43,6.968 0.43,11.743 0,4.584 -0.336,9.739 -1.001,15.466 6.777,-0.285 18.187,-0.427 34.226,-0.427 14.608,0 25.251,0.142 31.936,0.427 z"
             style="fill:#737479;fill-opacity:1;fill-rule:nonzero;stroke:none"
             id="path268" />
        </g>
        <g
           id="g270"
           transform="translate(704.9067,607.1484)">
          <path
             d="M 0,0 V 70.398 L 40.441,0 Z m -3.165,0 h -40.44 l 40.44,70.315 z M 43.79,0 c 0,0.205 -0.044,0.459 -0.183,0.672 L 1.516,73.954 c 0.503,0.253 0.969,0.505 1.47,0.796 1.379,-0.754 2.928,-1.169 4.625,-1.169 5.093,0 9.216,3.763 9.216,8.369 0,4.648 -4.123,8.41 -9.216,8.41 -5.047,0 -9.16,-3.762 -9.16,-8.41 0,-0.418 0.035,-0.84 0.081,-1.215 -8.566,-4.142 -16.825,-6.528 -27.1,-6.864 -12.188,-0.377 -22.053,5.108 -32.135,10.799 -7.29,4.102 -15.732,7.995 -24.355,10.923 0.376,-1.629 0.604,-3.346 0.604,-5.103 0,-3.353 -0.786,-6.531 -2.154,-9.38 9.113,-3.053 18.011,-7.239 25.905,-11.174 10.594,-5.357 23.146,-7.113 31.453,-6.402 7.426,0.668 14.808,2.973 22.143,6.195 L -46.773,0.672 C -46.909,0.459 -46.954,0.205 -46.954,0 h -4.625 v -7.073 h 6.231 c 6.789,-16.074 23.797,-27.459 43.799,-27.459 19.981,0 37.034,11.385 43.731,27.459 h 6.29 V 0 Z"
             style="fill:#d1d9dc;fill-opacity:1;fill-rule:nonzero;stroke:none"
             id="path272" />
        </g>
        <g
           id="g274"
           transform="translate(528.7866,607.1484)">
          <path
             d="m 0,0 h -40.395 v 70.315 z m -43.562,0 h -40.439 l 40.439,70.398 z m 59.794,69.936 c 7.848,3.935 16.79,8.121 25.858,11.174 -1.321,2.849 -2.107,6.027 -2.107,9.38 0,1.757 0.239,3.474 0.603,5.103 C 31.963,92.665 23.522,88.772 16.232,84.67 6.15,78.979 -3.759,73.494 -15.904,73.871 c -9.955,0.336 -18.021,2.594 -26.28,6.488 0.137,0.499 0.183,1.045 0.183,1.591 0,4.648 -4.124,8.41 -9.171,8.41 -5.091,0 -9.215,-3.762 -9.215,-8.41 0,-4.606 4.124,-8.369 9.215,-8.369 1.516,0 2.94,0.335 4.181,0.919 0.593,-0.335 1.14,-0.629 1.733,-0.919 L -87.156,0.672 C -87.294,0.459 -87.34,0.205 -87.34,0 h -4.681 v -7.073 h 6.232 c 6.787,-16.074 23.853,-27.459 43.788,-27.459 19.991,0 37.046,11.385 43.789,27.459 H 8.03 V 0 H 3.349 c 0,0.205 -0.047,0.459 -0.183,0.672 L -36.18,69.226 c 6.971,-2.971 13.942,-5.064 20.959,-5.692 8.294,-0.711 20.813,1.045 31.453,6.402"
             style="fill:#d1d9dc;fill-opacity:1;fill-rule:nonzero;stroke:none"
             id="path276" />
        </g>
        <g
           id="g278"
           transform="translate(606.2642,711.2939)">
          <path
             d="m 0,0 v 14.996 c 3.313,0.268 5.877,2.787 5.877,5.84 0,2.935 -2.239,5.305 -5.325,5.78 1.852,2.223 2.89,5.009 2.89,8.031 0,7.618 -6.785,13.752 -15.131,13.752 -8.345,0 -15.066,-6.134 -15.066,-13.752 0,-3.022 1.039,-5.808 2.824,-8.031 -3.019,-0.475 -5.293,-2.905 -5.293,-5.78 0,-3.053 2.566,-5.572 5.91,-5.84 V 0 c -4.448,-3.202 -7.306,-8.122 -7.306,-13.665 0,-5.572 2.858,-10.493 7.306,-13.664 H 0 c 4.449,3.171 7.306,8.092 7.306,13.664 C 7.306,-8.122 4.449,-3.202 0,0"
             style="fill:#d1d9dc;fill-opacity:1;fill-rule:nonzero;stroke:none"
             id="path280" />
        </g>
        <g
           id="g282"
           transform="translate(596.5308,561.5508)">
          <path
             d="M 0,0 -35.564,79.939 -71.443,0 Z m 74.274,-68.611 v -6.294 c -8.393,0.629 -19.62,0.944 -33.675,0.944 -18.048,0 -31.474,-0.315 -40.285,-0.944 v 6.294 c 7.76,0.419 13.48,1.465 17.153,3.146 3.669,1.677 5.507,4.51 5.507,8.498 0,3.354 -1.47,8.287 -4.405,14.793 L 2.517,-6.295 H -73.96 l -10.702,-23.604 c -3.57,-8.183 -5.35,-14.902 -5.35,-20.143 0,-5.459 1.938,-9.707 5.823,-12.747 3.88,-3.044 10.12,-4.985 18.725,-5.822 v -6.294 c -6.295,0.629 -15.845,0.944 -28.639,0.944 -12.8,0 -21.928,-0.315 -27.382,-0.944 v 6.294 c 5.665,1.465 10.49,4.667 14.477,9.6 3.985,4.925 7.76,11.486 11.331,19.67 l 69.553,157.362 h 5.037 L 52.56,-48.469 c 5.663,-13.01 12.902,-19.723 21.714,-20.142"
             style="fill:#9d9c9a;fill-opacity:1;fill-rule:nonzero;stroke:none"
             id="path284" />
        </g>
        <g
           id="g286"
           transform="translate(638.2256,560.8408)">
          <path
             d="M 0,0 -35.565,79.939 -71.443,0 Z m 74.274,-68.61 v -6.295 c -8.394,0.629 -19.62,0.944 -33.675,0.944 -18.048,0 -31.474,-0.315 -40.285,-0.944 v 6.295 c 7.76,0.418 13.48,1.464 17.153,3.145 3.669,1.677 5.507,4.51 5.507,8.499 0,3.354 -1.47,8.287 -4.405,14.793 L 2.517,-6.295 H -73.96 l -10.702,-23.604 c -3.57,-8.183 -5.35,-14.902 -5.35,-20.143 0,-5.459 1.938,-9.707 5.823,-12.746 3.88,-3.044 10.12,-4.986 18.725,-5.822 v -6.295 c -6.295,0.629 -15.845,0.944 -28.639,0.944 -12.8,0 -21.928,-0.315 -27.382,-0.944 v 6.295 c 5.665,1.464 10.49,4.666 14.477,9.599 3.985,4.926 7.76,11.486 11.331,19.67 l 69.553,157.362 h 5.037 L 52.559,-48.468 c 5.664,-13.011 12.903,-19.724 21.715,-20.142"
             style="fill:#737479;fill-opacity:1;fill-rule:nonzero;stroke:none"
             id="path288" />
        </g>
        <g
           id="g290"
           transform="translate(651.7539,507.0244)">
          <path
             d="m 0,0 c -3.718,-0.253 -7.511,0.344 -11.25,0.14 -6.912,-0.377 -13.756,-0.908 -20.682,-0.961 0.089,-0.671 0.148,-1.31 0.148,-1.885 0,-3.909 -1.803,-6.686 -5.399,-8.329 -3.6,-1.65 -9.206,-2.676 -16.812,-3.085 v -6.17 c 8.637,0.616 21.797,0.925 39.487,0.925 13.777,0 24.781,-0.309 33.009,-0.925 v 6.17 C 11.244,-13.776 5.079,-9.059 0,0"
             style="fill:#9d9c9a;fill-opacity:1;fill-rule:nonzero;stroke:none"
             id="path292" />
        </g>
        <g
           id="g294"
           transform="translate(608.0361,605.6875)">
          <path
             d="m 0,0 -26.227,-11.385 -14,32.251 L -14,32.251 Z"
             style="fill:#9d9c9a;fill-opacity:1;fill-rule:nonzero;stroke:none"
             id="path296" />
        </g>
      </g>
    </g>
  </g>
</svg>
