<?xml version="1.0" encoding="UTF-8" standalone="no"?>
<svg
   xmlns:dc="http://purl.org/dc/elements/1.1/"
   xmlns:cc="http://creativecommons.org/ns#"
   xmlns:rdf="http://www.w3.org/1999/02/22-rdf-syntax-ns#"
   xmlns:svg="http://www.w3.org/2000/svg"
   xmlns="http://www.w3.org/2000/svg"
   xmlns:sodipodi="http://sodipodi.sourceforge.net/DTD/sodipodi-0.dtd"
   xmlns:inkscape="http://www.inkscape.org/namespaces/inkscape"
   width="200"
   height="64"
   viewBox="0 0 52.916667 16.933333"
   version="1.1"
   id="svg332"
   inkscape:version="1.0.2 (e86c870879, 2021-01-15)"
   sodipodi:docname="logo-horizontal-alvarez-bufete-de-abogados.svg">
  <defs
     id="defs326" />
  <sodipodi:namedview
     id="base"
     pagecolor="#ffffff"
     bordercolor="#666666"
     borderopacity="1.0"
     inkscape:pageopacity="0.0"
     inkscape:pageshadow="2"
     inkscape:zoom="3.192"
     inkscape:cx="125"
     inkscape:cy="28"
     inkscape:document-units="mm"
     inkscape:current-layer="g924"
     inkscape:document-rotation="0"
     showgrid="true"
     inkscape:snap-center="true"
     inkscape:window-width="1366"
     inkscape:window-height="710"
     inkscape:window-x="0"
     inkscape:window-y="27"
     inkscape:window-maximized="1"
     units="px"
     inkscape:snap-global="true"
     inkscape:snap-object-midpoints="true"
     inkscape:snap-grids="false"
     inkscape:snap-to-guides="false">
    <inkscape:grid
       type="xygrid"
       id="grid500" />
  </sodipodi:namedview>
  <metadata
     id="metadata329">
    <rdf:RDF>
      <cc:Work
         rdf:about="">
        <dc:format>image/svg+xml</dc:format>
        <dc:type
           rdf:resource="http://purl.org/dc/dcmitype/StillImage" />
        <dc:title></dc:title>
      </cc:Work>
    </rdf:RDF>
  </metadata>
  <g
     inkscape:label="Capa 1"
     inkscape:groupmode="layer"
     id="layer1">
    <g
       id="g924"
       transform="matrix(0.87732973,0,0,0.87732973,-1.2597489,0.2355134)">
      <g
         id="g462"
         transform="matrix(0.2930656,0,0,0.33565962,8.6125333,-6.7104107)">
        <g
           id="g583">
          <g
             id="g565">
            <g
               id="g548">
              <g
                 id="g48"
                 transform="matrix(0.35277777,0,0,-0.35277777,26.239949,50.62728)">
                <path
                   d="M 0,0 V 34.195 L 19.645,0 Z m -1.537,0 h -19.644 l 19.644,34.155 z m 22.808,0 c 0,0.1 -0.022,0.223 -0.088,0.326 L 0.736,35.923 c 0.244,0.123 0.471,0.245 0.714,0.387 0.67,-0.367 1.423,-0.569 2.247,-0.569 2.474,0 4.477,1.828 4.477,4.066 0,2.257 -2.003,4.085 -4.477,4.085 -2.451,0 -4.449,-1.828 -4.449,-4.085 0,-0.203 0.017,-0.408 0.039,-0.59 -4.161,-2.013 -8.173,-3.171 -13.164,-3.334 -5.92,-0.184 -10.712,2.481 -15.609,5.244 -3.541,1.994 -7.641,3.885 -11.83,5.307 0.182,-0.792 0.294,-1.625 0.294,-2.479 0,-1.629 -0.382,-3.173 -1.047,-4.556 4.426,-1.483 8.749,-3.516 12.583,-5.428 5.146,-2.602 11.243,-3.455 15.278,-3.11 3.607,0.325 7.193,1.444 10.756,3.01 L -22.72,0.326 C -22.786,0.223 -22.808,0.1 -22.808,0 h -2.246 v -3.436 h 3.027 c 3.298,-7.808 11.559,-13.338 21.275,-13.338 9.705,0 17.989,5.53 21.242,13.338 h 3.055 V 0 Z"
                   style="fill:#accded;fill-opacity:1;fill-rule:nonzero;stroke:none"
                   id="path50" />
              </g>
              <g
                 id="g52"
                 transform="matrix(0.35277777,0,0,-0.35277777,-3.9398001,50.62728)">
                <path
                   d="M 0,0 H -19.622 V 34.155 Z M -21.16,0 H -40.803 L -21.16,34.195 Z M 7.885,33.971 c 3.811,1.912 8.155,3.945 12.559,5.428 -0.641,1.383 -1.023,2.927 -1.023,4.556 0,0.854 0.116,1.687 0.294,2.479 -4.19,-1.422 -8.289,-3.313 -11.83,-5.307 -4.898,-2.763 -9.711,-5.428 -15.611,-5.244 -4.836,0.163 -8.753,1.26 -12.764,3.151 0.066,0.243 0.088,0.508 0.088,0.773 0,2.257 -2.003,4.085 -4.454,4.085 -2.473,0 -4.477,-1.828 -4.477,-4.085 0,-2.238 2.004,-4.066 4.477,-4.066 0.736,0 1.427,0.163 2.031,0.447 0.287,-0.163 0.554,-0.305 0.842,-0.447 L -42.336,0.326 C -42.402,0.223 -42.425,0.1 -42.425,0 h -2.273 v -3.436 h 3.026 c 3.297,-7.808 11.587,-13.338 21.27,-13.338 9.711,0 17.995,5.53 21.27,13.338 H 3.9 V 0 H 1.626 c 0,0.1 -0.022,0.223 -0.088,0.326 l -19.112,33.3 c 3.386,-1.443 6.772,-2.46 10.18,-2.765 4.029,-0.345 10.11,0.508 15.279,3.11"
                   style="fill:#accded;fill-opacity:1;fill-rule:nonzero;stroke:none"
                   id="path54" />
              </g>
              <g
                 id="g56"
                 transform="matrix(0.35277777,0,0,-0.35277777,9.3365699,32.781031)">
                <path
                   d="m 0,0 v 7.284 c 1.609,0.131 2.855,1.354 2.855,2.837 0,1.425 -1.087,2.577 -2.586,2.808 0.899,1.079 1.404,2.432 1.404,3.901 0,3.7 -3.297,6.68 -7.351,6.68 -4.053,0 -7.318,-2.98 -7.318,-6.68 0,-1.469 0.505,-2.822 1.372,-3.901 -1.467,-0.231 -2.571,-1.411 -2.571,-2.808 0,-1.483 1.247,-2.706 2.871,-2.837 V 0 c -2.16,-1.555 -3.549,-3.945 -3.549,-6.638 0,-2.706 1.389,-5.096 3.549,-6.636 H 0 c 2.161,1.54 3.549,3.93 3.549,6.636 C 3.549,-3.945 2.161,-1.555 0,0"
                   style="fill:#accded;fill-opacity:1;fill-rule:nonzero;stroke:none"
                   id="path58" />
              </g>
              <g
                 id="g152"
                 transform="matrix(0.35277777,0,0,-0.35277777,7.6688099,58.44096)">
                <path
                   d="M 0,0 -17.275,38.83 -34.703,0 Z m 36.078,-33.327 v -3.058 c -4.077,0.306 -9.53,0.459 -16.357,0.459 -8.767,0 -15.288,-0.153 -19.569,-0.459 v 3.058 c 3.77,0.203 6.548,0.712 8.332,1.528 1.783,0.815 2.675,2.191 2.675,4.128 0,1.629 -0.714,4.025 -2.139,7.186 L 1.223,-3.058 h -37.149 l -5.198,-11.465 c -1.734,-3.975 -2.599,-7.239 -2.599,-9.785 0,-2.651 0.942,-4.714 2.828,-6.191 1.885,-1.479 4.916,-2.422 9.096,-2.828 v -3.058 c -3.057,0.306 -7.696,0.459 -13.911,0.459 -6.218,0 -10.651,-0.153 -13.301,-0.459 v 3.058 c 2.752,0.712 5.096,2.266 7.032,4.663 1.936,2.393 3.77,5.579 5.504,9.555 l 33.786,76.437 h 2.446 L 25.53,-23.543 c 2.751,-6.32 6.268,-9.581 10.548,-9.784"
                   style="fill:#5d77a0;fill-opacity:1;fill-rule:nonzero;stroke:none"
                   id="path154" />
              </g>
              <g
                 id="g156"
                 transform="matrix(0.35277777,0,0,-0.35277777,14.81358,58.56256)">
                <path
                   d="M 0,0 -17.275,38.83 -34.703,0 Z m 36.078,-33.327 v -3.058 c -4.077,0.306 -9.53,0.459 -16.357,0.459 -8.767,0 -15.288,-0.153 -19.569,-0.459 v 3.058 c 3.77,0.203 6.548,0.712 8.332,1.528 1.783,0.815 2.675,2.191 2.675,4.128 0,1.629 -0.714,4.025 -2.139,7.186 L 1.223,-3.058 h -37.149 l -5.198,-11.465 c -1.734,-3.975 -2.599,-7.239 -2.599,-9.785 0,-2.651 0.942,-4.714 2.828,-6.191 1.885,-1.479 4.916,-2.422 9.096,-2.828 v -3.058 c -3.057,0.306 -7.696,0.459 -13.911,0.459 -6.218,0 -10.651,-0.153 -13.301,-0.459 v 3.058 c 2.752,0.712 5.096,2.266 7.032,4.663 1.936,2.393 3.77,5.579 5.504,9.555 l 33.786,76.437 h 2.446 L 25.53,-23.543 c 2.751,-6.32 6.268,-9.581 10.548,-9.784"
                   style="fill:#263049;fill-opacity:1;fill-rule:nonzero;stroke:none"
                   id="path158" />
              </g>
              <g
                 id="g160"
                 transform="matrix(0.35277777,0,0,-0.35277777,17.13179,67.78438)">
                <path
                   d="m 0,0 c -1.807,-0.123 -3.648,0.167 -5.465,0.067 -3.357,-0.183 -6.681,-0.44 -10.046,-0.466 0.043,-0.326 0.073,-0.636 0.073,-0.916 0,-1.899 -0.876,-3.247 -2.624,-4.045 -1.749,-0.801 -4.471,-1.3 -8.166,-1.499 v -2.997 c 4.196,0.299 10.588,0.45 19.181,0.45 6.692,0 12.037,-0.151 16.033,-0.45 v 2.997 C 5.462,-6.692 2.467,-4.4 0,0"
                   style="fill:#5d77a0;fill-opacity:1;fill-rule:nonzero;stroke:none"
                   id="path162" />
              </g>
              <g
                 id="g180"
                 transform="matrix(0.35277777,0,0,-0.35277777,9.6404099,50.87776)">
                <path
                   d="m 0,0 -12.74,-5.53 -6.8,15.666 12.739,5.53 z"
                   style="fill:#5d77a0;fill-opacity:1;fill-rule:nonzero;stroke:none"
                   id="path182" />
              </g>
            </g>
          </g>
        </g>
      </g>
      <g
         id="g857"
         transform="matrix(1.5732389,0,0,1.5732389,-3.3354213,4.01857)"
         style="stroke-width:0.635631">
        <g
           id="g60"
           transform="matrix(0.08893589,0,0,-0.08893589,16.854027,6.5967547)"
           style="stroke-width:0.635631">
          <path
             d="M 0,0 C 0.977,0.66 1.465,1.679 1.465,3.056 1.465,4.432 0.977,5.445 0,6.097 -0.977,6.747 -2.413,7.073 -4.311,7.073 h -7.281 V -0.99 h 7.281 C -2.413,-0.99 -0.977,-0.66 0,0 M -11.592,16.085 V 8.301 h 6.668 c 1.711,0 3.027,0.33 3.947,0.99 0.921,0.66 1.381,1.632 1.381,2.915 0,1.265 -0.46,2.228 -1.381,2.888 -0.92,0.66 -2.236,0.991 -3.947,0.991 z M 1.786,6.208 C 2.521,5.371 2.888,4.283 2.888,2.943 2.888,1.288 2.283,0.015 1.074,-0.879 -0.135,-1.771 -1.93,-2.218 -4.311,-2.218 h -8.705 v 19.53 h 8.148 c 2.12,0 3.77,-0.432 4.952,-1.297 C 1.265,15.15 1.855,13.918 1.855,12.318 1.855,11.202 1.562,10.263 0.977,9.5 0.391,8.737 -0.404,8.188 -1.409,7.854 -0.014,7.594 1.051,7.045 1.786,6.208"
             style="fill:#5d77a0;fill-opacity:1;fill-rule:nonzero;stroke:none;stroke-width:0.635631"
             id="path62" />
        </g>
        <g
           id="g64"
           transform="matrix(0.08893589,0,0,-0.08893589,18.656713,5.4987787)"
           style="stroke-width:0.635631">
          <path
             d="m 0,0 v -14.563 h -1.34 v 3.125 c -0.483,-1.024 -1.199,-1.819 -2.148,-2.386 -0.949,-0.568 -2.065,-0.851 -3.348,-0.851 -1.897,0 -3.386,0.53 -4.464,1.59 -1.079,1.061 -1.618,2.585 -1.618,4.576 V 0 h 1.395 v -8.397 c 0,-1.637 0.419,-2.884 1.255,-3.739 0.837,-0.856 2.018,-1.284 3.543,-1.284 1.637,0 2.935,0.512 3.893,1.535 0.958,1.023 1.436,2.4 1.436,4.129 V 0 Z"
             style="fill:#5d77a0;fill-opacity:1;fill-rule:nonzero;stroke:none;stroke-width:0.635631"
             id="path66" />
        </g>
        <g
           id="g68"
           transform="matrix(0.08893589,0,0,-0.08893589,19.329122,5.3101367)"
           style="stroke-width:0.635631">
          <path
             d="M 0,0 V -2.121 H 4.659 V -3.32 H 0.028 V -16.685 H -1.367 V -3.32 h -2.679 v 1.199 h 2.679 v 2.232 c 0,1.228 0.353,2.204 1.06,2.93 0.706,0.726 1.702,1.088 2.986,1.088 0.557,0 1.092,-0.079 1.603,-0.237 C 4.794,3.733 5.217,3.496 5.552,3.181 L 4.994,2.12 C 4.398,2.659 3.646,2.929 2.734,2.929 0.911,2.929 0,1.952 0,0"
             style="fill:#5d77a0;fill-opacity:1;fill-rule:nonzero;stroke:none;stroke-width:0.635631"
             id="path70" />
        </g>
        <g
           id="g72"
           transform="matrix(0.08893589,0,0,-0.08893589,20.207533,5.6587567)"
           style="stroke-width:0.635631">
          <path
             d="M 0,0 C -0.818,-0.456 -1.475,-1.098 -1.967,-1.926 -2.46,-2.753 -2.744,-3.688 -2.818,-4.729 H 8.342 C 8.286,-3.688 8.007,-2.758 7.505,-1.939 7.003,-1.121 6.343,-0.479 5.524,-0.015 4.705,0.45 3.785,0.684 2.762,0.684 1.739,0.684 0.818,0.455 0,0 M 9.682,-5.817 H -2.846 c 0.037,-1.135 0.325,-2.145 0.865,-3.028 0.54,-0.884 1.269,-1.567 2.19,-2.051 0.921,-0.483 1.958,-0.725 3.111,-0.725 0.949,0 1.827,0.172 2.637,0.517 0.809,0.343 1.482,0.85 2.022,1.52 l 0.809,-0.921 c -0.632,-0.763 -1.428,-1.349 -2.385,-1.758 -0.959,-0.409 -1.995,-0.613 -3.111,-0.613 -1.45,0 -2.744,0.315 -3.878,0.948 -1.135,0.632 -2.022,1.507 -2.664,2.623 -0.643,1.116 -0.963,2.39 -0.963,3.823 0,1.413 0.302,2.682 0.906,3.807 0.605,1.126 1.438,2.005 2.497,2.637 1.061,0.633 2.251,0.949 3.572,0.949 1.32,0 2.507,-0.312 3.557,-0.934 1.051,-0.624 1.878,-1.494 2.484,-2.61 0.603,-1.116 0.906,-2.381 0.906,-3.794 z"
             style="fill:#5d77a0;fill-opacity:1;fill-rule:nonzero;stroke:none;stroke-width:0.635631"
             id="path74" />
        </g>
        <g
           id="g76"
           transform="matrix(0.08893589,0,0,-0.08893589,22.098203,6.712087)"
           style="stroke-width:0.635631">
          <path
             d="m 0,0 c -0.354,-0.335 -0.795,-0.591 -1.325,-0.768 -0.53,-0.176 -1.084,-0.264 -1.66,-0.264 -1.265,0 -2.242,0.348 -2.93,1.046 -0.689,0.697 -1.032,1.669 -1.032,2.916 v 9.513 h -2.679 v 1.2 h 2.679 v 3.18 h 1.395 v -3.18 h 4.631 v -1.2 H -5.552 V 3.068 c 0,-0.948 0.228,-1.669 0.684,-2.162 0.455,-0.493 1.13,-0.739 2.022,-0.739 0.911,0 1.664,0.27 2.26,0.81 z"
             style="fill:#5d77a0;fill-opacity:1;fill-rule:nonzero;stroke:none;stroke-width:0.635631"
             id="path78" />
        </g>
        <g
           id="g80"
           transform="matrix(0.08893589,0,0,-0.08893589,22.629213,5.6587567)"
           style="stroke-width:0.635631">
          <path
             d="M 0,0 C -0.818,-0.456 -1.475,-1.098 -1.967,-1.926 -2.46,-2.753 -2.744,-3.688 -2.818,-4.729 H 8.342 C 8.286,-3.688 8.007,-2.758 7.505,-1.939 7.003,-1.121 6.343,-0.479 5.524,-0.015 4.705,0.45 3.785,0.684 2.762,0.684 1.739,0.684 0.818,0.455 0,0 M 9.682,-5.817 H -2.846 c 0.037,-1.135 0.325,-2.145 0.865,-3.028 0.54,-0.884 1.269,-1.567 2.19,-2.051 0.921,-0.483 1.958,-0.725 3.111,-0.725 0.949,0 1.827,0.172 2.637,0.517 0.809,0.343 1.482,0.85 2.022,1.52 l 0.809,-0.921 c -0.632,-0.763 -1.428,-1.349 -2.385,-1.758 -0.959,-0.409 -1.995,-0.613 -3.111,-0.613 -1.45,0 -2.744,0.315 -3.878,0.948 -1.135,0.632 -2.022,1.507 -2.664,2.623 -0.643,1.116 -0.963,2.39 -0.963,3.823 0,1.413 0.302,2.682 0.906,3.807 0.605,1.126 1.438,2.005 2.497,2.637 1.061,0.633 2.251,0.949 3.572,0.949 1.32,0 2.507,-0.312 3.557,-0.934 1.051,-0.624 1.878,-1.494 2.484,-2.61 0.603,-1.116 0.906,-2.381 0.906,-3.794 z"
             style="fill:#5d77a0;fill-opacity:1;fill-rule:nonzero;stroke:none;stroke-width:0.635631"
             id="path82" />
        </g>
        <g
           id="g84"
           transform="matrix(0.08893589,0,0,-0.08893589,25.287916,6.6228037)"
           style="stroke-width:0.635631">
          <path
             d="m 0,0 c 0.883,0.521 1.58,1.246 2.093,2.177 0.511,0.929 0.766,1.99 0.766,3.18 0,1.19 -0.255,2.25 -0.766,3.181 -0.513,0.93 -1.21,1.655 -2.093,2.176 -0.884,0.52 -1.884,0.781 -2.999,0.781 -1.116,0 -2.116,-0.261 -3,-0.781 C -6.883,10.193 -7.58,9.468 -8.091,8.538 -8.603,7.607 -8.858,6.547 -8.858,5.357 c 0,-1.19 0.255,-2.251 0.767,-3.18 C -7.58,1.246 -6.883,0.521 -5.999,0 c 0.884,-0.521 1.884,-0.781 3,-0.781 1.115,0 2.115,0.26 2.999,0.781 M 4.255,18.777 V -1.925 H 2.888 V 1.507 C 2.311,0.372 1.502,-0.502 0.46,-1.115 c -1.042,-0.614 -2.223,-0.921 -3.543,-0.921 -1.358,0 -2.586,0.315 -3.683,0.948 -1.097,0.632 -1.958,1.507 -2.581,2.623 -0.623,1.115 -0.934,2.39 -0.934,3.822 0,1.432 0.311,2.71 0.934,3.836 0.623,1.125 1.484,1.999 2.581,2.623 1.097,0.622 2.325,0.935 3.683,0.935 1.302,0 2.469,-0.308 3.501,-0.921 1.032,-0.614 1.846,-1.47 2.441,-2.567 v 9.514 z"
             style="fill:#5d77a0;fill-opacity:1;fill-rule:nonzero;stroke:none;stroke-width:0.635631"
             id="path86" />
        </g>
        <g
           id="g88"
           transform="matrix(0.08893589,0,0,-0.08893589,26.423057,5.6587567)"
           style="stroke-width:0.635631">
          <path
             d="M 0,0 C -0.818,-0.456 -1.475,-1.098 -1.967,-1.926 -2.46,-2.753 -2.744,-3.688 -2.818,-4.729 H 8.342 C 8.286,-3.688 8.007,-2.758 7.505,-1.939 7.003,-1.121 6.343,-0.479 5.524,-0.015 4.705,0.45 3.785,0.684 2.762,0.684 1.739,0.684 0.818,0.455 0,0 M 9.682,-5.817 H -2.846 c 0.037,-1.135 0.325,-2.145 0.865,-3.028 0.54,-0.884 1.269,-1.567 2.19,-2.051 0.921,-0.483 1.958,-0.725 3.111,-0.725 0.949,0 1.827,0.172 2.637,0.517 0.809,0.343 1.482,0.85 2.022,1.52 l 0.809,-0.921 c -0.632,-0.763 -1.428,-1.349 -2.385,-1.758 -0.959,-0.409 -1.995,-0.613 -3.111,-0.613 -1.45,0 -2.744,0.315 -3.878,0.948 -1.135,0.632 -2.022,1.507 -2.664,2.623 -0.643,1.116 -0.963,2.39 -0.963,3.823 0,1.413 0.302,2.682 0.906,3.807 0.605,1.126 1.438,2.005 2.497,2.637 1.061,0.633 2.251,0.949 3.572,0.949 1.32,0 2.507,-0.312 3.557,-0.934 1.051,-0.624 1.878,-1.494 2.484,-2.61 0.603,-1.116 0.906,-2.381 0.906,-3.794 z"
             style="fill:#5d77a0;fill-opacity:1;fill-rule:nonzero;stroke:none;stroke-width:0.635631"
             id="path90" />
        </g>
        <g
           id="g92"
           transform="matrix(0.08893589,0,0,-0.08893589,29.375747,6.1984467)"
           style="stroke-width:0.635631">
          <path
             d="M 0,0 -5.134,11.271 -10.239,0 Z m 0.53,-1.2 h -11.327 l -2.483,-5.496 h -1.534 l 8.983,19.53 h 1.423 L 4.576,-6.696 H 3.041 Z"
             style="fill:#5d77a0;fill-opacity:1;fill-rule:nonzero;stroke:none;stroke-width:0.635631"
             id="path94" />
        </g>
        <g
           id="g96"
           transform="matrix(0.08893589,0,0,-0.08893589,30.968695,6.6228037)"
           style="stroke-width:0.635631">
          <path
             d="m 0,0 c 0.894,0.521 1.595,1.246 2.106,2.177 0.512,0.929 0.768,1.99 0.768,3.18 0,1.19 -0.256,2.25 -0.768,3.181 -0.511,0.93 -1.212,1.655 -2.106,2.176 -0.893,0.52 -1.896,0.781 -3.013,0.781 -1.116,0 -2.116,-0.261 -2.999,-0.781 C -6.896,10.193 -7.593,9.468 -8.104,8.538 -8.616,7.607 -8.872,6.547 -8.872,5.357 c 0,-1.19 0.256,-2.251 0.768,-3.18 0.511,-0.931 1.208,-1.656 2.092,-2.177 0.883,-0.521 1.883,-0.781 2.999,-0.781 1.117,0 2.12,0.26 3.013,0.781 M 0.754,11.816 C 1.851,11.192 2.711,10.318 3.334,9.193 3.957,8.067 4.27,6.789 4.27,5.357 4.27,3.925 3.957,2.65 3.334,1.535 2.711,0.419 1.851,-0.456 0.754,-1.088 c -1.098,-0.633 -2.325,-0.948 -3.683,-0.948 -1.302,0 -2.479,0.31 -3.529,0.934 -1.052,0.623 -1.865,1.493 -2.441,2.609 v -3.432 h -1.34 v 20.702 h 1.395 V 9.319 c 0.576,1.078 1.386,1.92 2.427,2.525 1.042,0.604 2.204,0.907 3.488,0.907 1.358,0 2.585,-0.313 3.683,-0.935"
             style="fill:#5d77a0;fill-opacity:1;fill-rule:nonzero;stroke:none;stroke-width:0.635631"
             id="path98" />
        </g>
        <g
           id="g100"
           transform="matrix(0.08893589,0,0,-0.08893589,32.505872,6.6228037)"
           style="stroke-width:0.635631">
          <path
             d="m 0,0 c 0.883,0.521 1.58,1.246 2.093,2.177 0.511,0.929 0.766,1.99 0.766,3.18 0,1.19 -0.255,2.25 -0.766,3.181 -0.513,0.93 -1.21,1.655 -2.093,2.176 -0.884,0.52 -1.884,0.781 -2.999,0.781 -1.116,0 -2.116,-0.261 -3,-0.781 C -6.883,10.193 -7.58,9.468 -8.091,8.538 -8.603,7.607 -8.858,6.547 -8.858,5.357 c 0,-1.19 0.255,-2.251 0.767,-3.18 C -7.58,1.246 -6.883,0.521 -5.999,0 c 0.884,-0.521 1.884,-0.781 3,-0.781 1.115,0 2.115,0.26 2.999,0.781 m -6.724,-1.088 c -1.107,0.632 -1.976,1.511 -2.609,2.637 -0.632,1.125 -0.948,2.394 -0.948,3.808 0,1.414 0.316,2.683 0.948,3.808 0.633,1.126 1.502,2.005 2.609,2.637 1.106,0.633 2.348,0.949 3.725,0.949 1.376,0 2.617,-0.316 3.725,-0.949 C 1.832,11.17 2.701,10.291 3.334,9.165 3.966,8.04 4.282,6.771 4.282,5.357 4.282,3.943 3.966,2.674 3.334,1.549 2.701,0.423 1.832,-0.456 0.726,-1.088 c -1.108,-0.633 -2.349,-0.948 -3.725,-0.948 -1.377,0 -2.619,0.315 -3.725,0.948"
             style="fill:#5d77a0;fill-opacity:1;fill-rule:nonzero;stroke:none;stroke-width:0.635631"
             id="path102" />
        </g>
        <g
           id="g104"
           transform="matrix(0.08893589,0,0,-0.08893589,34.057911,6.5693887)"
           style="stroke-width:0.635631">
          <path
             d="M 0,0 C 0.911,0.492 1.622,1.181 2.135,2.064 2.646,2.947 2.901,3.957 2.901,5.092 2.901,6.226 2.646,7.23 2.135,8.104 1.622,8.979 0.911,9.662 0,10.155 c -0.911,0.492 -1.935,0.74 -3.069,0.74 -1.135,0 -2.153,-0.248 -3.055,-0.74 C -7.026,9.662 -7.733,8.979 -8.244,8.104 -8.756,7.23 -9.012,6.226 -9.012,5.092 c 0,-1.135 0.256,-2.145 0.768,-3.028 0.511,-0.883 1.218,-1.572 2.12,-2.064 0.902,-0.493 1.92,-0.74 3.055,-0.74 1.134,0 2.158,0.247 3.069,0.74 M 4.269,12.038 V -0.963 c 0,-2.418 -0.586,-4.203 -1.758,-5.356 -1.172,-1.154 -2.939,-1.731 -5.301,-1.731 -1.339,0 -2.605,0.205 -3.794,0.614 -1.191,0.41 -2.148,0.977 -2.874,1.702 l 0.753,1.06 c 0.726,-0.67 1.6,-1.19 2.623,-1.562 1.022,-0.372 2.11,-0.558 3.264,-0.558 1.934,0 3.367,0.46 4.297,1.381 0.929,0.921 1.395,2.349 1.395,4.282 V 1.325 C 2.278,0.265 1.451,-0.554 0.391,-1.131 -0.67,-1.707 -1.86,-1.995 -3.181,-1.995 c -1.358,0 -2.59,0.302 -3.696,0.906 -1.107,0.605 -1.977,1.446 -2.609,2.526 -0.632,1.078 -0.949,2.296 -0.949,3.655 0,1.357 0.317,2.575 0.949,3.654 0.632,1.079 1.502,1.916 2.609,2.511 1.106,0.596 2.338,0.893 3.696,0.893 1.339,0 2.548,-0.297 3.627,-0.893 C 1.524,10.662 2.353,9.825 2.93,8.746 v 3.292 z"
             style="fill:#5d77a0;fill-opacity:1;fill-rule:nonzero;stroke:none;stroke-width:0.635631"
             id="path106" />
        </g>
        <g
           id="g108"
           transform="matrix(0.08893589,0,0,-0.08893589,35.604994,6.6277577)"
           style="stroke-width:0.635631">
          <path
             d="m 0,0 c 0.846,0.559 1.482,1.367 1.911,2.428 v 2.734 h -4.967 c -1.432,0 -2.468,-0.261 -3.11,-0.781 -0.642,-0.522 -0.963,-1.237 -0.963,-2.149 0,-0.949 0.354,-1.698 1.061,-2.246 0.706,-0.548 1.701,-0.823 2.985,-0.823 1.209,0 2.236,0.279 3.083,0.837 M 1.854,11.425 C 2.822,10.505 3.306,9.151 3.306,7.366 V -1.869 H 1.967 V 0.726 C 1.501,-0.13 0.822,-0.795 -0.07,-1.27 c -0.893,-0.473 -1.962,-0.71 -3.208,-0.71 -1.618,0 -2.898,0.38 -3.837,1.143 -0.94,0.763 -1.408,1.767 -1.408,3.014 0,1.208 0.431,2.189 1.296,2.943 0.866,0.753 2.247,1.13 4.144,1.13 h 4.994 v 1.172 c 0,1.357 -0.368,2.39 -1.102,3.097 -0.735,0.707 -1.809,1.06 -3.223,1.06 -0.967,0 -1.893,-0.168 -2.775,-0.503 -0.884,-0.335 -1.633,-0.781 -2.247,-1.339 l -0.697,1.004 c 0.725,0.652 1.599,1.158 2.622,1.522 1.023,0.362 2.093,0.544 3.209,0.544 1.804,0 3.19,-0.461 4.156,-1.382"
             style="fill:#5d77a0;fill-opacity:1;fill-rule:nonzero;stroke:none;stroke-width:0.635631"
             id="path110" />
        </g>
        <g
           id="g112"
           transform="matrix(0.08893589,0,0,-0.08893589,37.185519,6.6228037)"
           style="stroke-width:0.635631">
          <path
             d="m 0,0 c 0.883,0.521 1.58,1.246 2.093,2.177 0.511,0.929 0.766,1.99 0.766,3.18 0,1.19 -0.255,2.25 -0.766,3.181 -0.513,0.93 -1.21,1.655 -2.093,2.176 -0.884,0.52 -1.884,0.781 -2.999,0.781 -1.116,0 -2.116,-0.261 -3,-0.781 C -6.883,10.193 -7.58,9.468 -8.091,8.538 -8.603,7.607 -8.858,6.547 -8.858,5.357 c 0,-1.19 0.255,-2.251 0.767,-3.18 C -7.58,1.246 -6.883,0.521 -5.999,0 c 0.884,-0.521 1.884,-0.781 3,-0.781 1.115,0 2.115,0.26 2.999,0.781 M 4.255,18.777 V -1.925 H 2.888 V 1.507 C 2.311,0.372 1.502,-0.502 0.46,-1.115 c -1.042,-0.614 -2.223,-0.921 -3.543,-0.921 -1.358,0 -2.586,0.315 -3.683,0.948 -1.097,0.632 -1.958,1.507 -2.581,2.623 -0.623,1.115 -0.934,2.39 -0.934,3.822 0,1.432 0.311,2.71 0.934,3.836 0.623,1.125 1.484,1.999 2.581,2.623 1.097,0.622 2.325,0.935 3.683,0.935 1.302,0 2.469,-0.308 3.501,-0.921 1.032,-0.614 1.846,-1.47 2.441,-2.567 v 9.514 z"
             style="fill:#5d77a0;fill-opacity:1;fill-rule:nonzero;stroke:none;stroke-width:0.635631"
             id="path114" />
        </g>
        <g
           id="g116"
           transform="matrix(0.08893589,0,0,-0.08893589,38.860359,6.6228037)"
           style="stroke-width:0.635631">
          <path
             d="m 0,0 c 0.883,0.521 1.58,1.246 2.093,2.177 0.511,0.929 0.766,1.99 0.766,3.18 0,1.19 -0.255,2.25 -0.766,3.181 -0.513,0.93 -1.21,1.655 -2.093,2.176 -0.884,0.52 -1.884,0.781 -2.999,0.781 -1.116,0 -2.116,-0.261 -3,-0.781 C -6.883,10.193 -7.58,9.468 -8.091,8.538 -8.603,7.607 -8.858,6.547 -8.858,5.357 c 0,-1.19 0.255,-2.251 0.767,-3.18 C -7.58,1.246 -6.883,0.521 -5.999,0 c 0.884,-0.521 1.884,-0.781 3,-0.781 1.115,0 2.115,0.26 2.999,0.781 m -6.724,-1.088 c -1.107,0.632 -1.976,1.511 -2.609,2.637 -0.632,1.125 -0.948,2.394 -0.948,3.808 0,1.414 0.316,2.683 0.948,3.808 0.633,1.126 1.502,2.005 2.609,2.637 1.106,0.633 2.348,0.949 3.725,0.949 1.376,0 2.617,-0.316 3.725,-0.949 C 1.832,11.17 2.701,10.291 3.334,9.165 3.966,8.04 4.282,6.771 4.282,5.357 4.282,3.943 3.966,2.674 3.334,1.549 2.701,0.423 1.832,-0.456 0.726,-1.088 c -1.108,-0.633 -2.349,-0.948 -3.725,-0.948 -1.377,0 -2.619,0.315 -3.725,0.948"
             style="fill:#5d77a0;fill-opacity:1;fill-rule:nonzero;stroke:none;stroke-width:0.635631"
             id="path118" />
        </g>
        <g
           id="g120"
           transform="matrix(0.08893589,0,0,-0.08893589,39.655571,6.756733)"
           style="stroke-width:0.635631">
          <path
             d="m 0,0 c -1.06,0.353 -1.888,0.799 -2.482,1.339 l 0.641,1.116 C -1.246,1.952 -0.479,1.534 0.461,1.199 1.399,0.864 2.381,0.697 3.404,0.697 c 1.469,0 2.553,0.241 3.25,0.726 C 7.352,1.906 7.7,2.575 7.7,3.432 7.7,4.045 7.51,4.528 7.129,4.882 6.747,5.235 6.277,5.496 5.72,5.663 5.162,5.831 4.39,6.007 3.404,6.193 2.251,6.397 1.32,6.621 0.614,6.863 c -0.707,0.241 -1.311,0.632 -1.813,1.172 -0.503,0.539 -0.754,1.283 -0.754,2.232 0,1.153 0.478,2.106 1.437,2.86 0.957,0.753 2.32,1.13 4.087,1.13 0.93,0 1.851,-0.131 2.763,-0.391 0.91,-0.261 1.654,-0.605 2.231,-1.032 L 7.924,11.718 c -0.596,0.428 -1.275,0.753 -2.037,0.976 -0.763,0.223 -1.544,0.335 -2.343,0.335 -1.358,0 -2.382,-0.252 -3.069,-0.754 -0.689,-0.502 -1.033,-1.162 -1.033,-1.98 0,-0.651 0.196,-1.158 0.586,-1.521 C 0.419,8.411 0.897,8.142 1.465,7.965 2.032,7.788 2.827,7.598 3.851,7.393 4.984,7.188 5.901,6.97 6.599,6.737 7.296,6.505 7.887,6.128 8.37,5.607 8.854,5.087 9.096,4.37 9.096,3.459 9.096,2.25 8.594,1.283 7.589,0.558 6.585,-0.168 5.171,-0.53 3.349,-0.53 2.177,-0.53 1.061,-0.354 0,0"
             style="fill:#5d77a0;fill-opacity:1;fill-rule:nonzero;stroke:none;stroke-width:0.635631"
             id="path122" />
        </g>
        <g
           id="g124"
           transform="matrix(0.08893589,0,0,-0.08893589,18.36993,-0.6215583)"
           style="stroke-width:0.635631">
          <path
             d="m 0,0 c 0.881,0 1.6,-0.395 2.156,-1.183 0.279,-0.418 0.418,-0.859 0.418,-1.322 0,-1.02 -0.626,-1.925 -1.879,-2.713 -0.973,-0.603 -2.642,-1.345 -5.007,-2.225 -3.479,-1.392 -6.47,-2.713 -8.974,-3.966 l -0.487,0.904 c 1.901,1.438 3.536,2.772 4.904,4 1.367,1.229 2.214,1.983 2.539,2.261 1.715,1.623 3.13,2.806 4.243,3.548 C -1.346,-0.233 -0.65,0 0,0 m -3.617,-44.104 -7.861,17.669 -7.93,-17.669 z M 12.8,-59.268 v -1.391 c -1.856,0.138 -4.337,0.209 -7.444,0.209 -3.989,0 -6.956,-0.071 -8.904,-0.209 v 1.391 c 1.716,0.092 2.98,0.324 3.791,0.696 0.812,0.371 1.218,0.997 1.218,1.878 0,0.741 -0.325,1.832 -0.974,3.269 l -3.548,7.931 h -16.904 l -2.365,-5.218 c -0.789,-1.809 -1.182,-3.293 -1.182,-4.452 0,-1.206 0.428,-2.146 1.286,-2.817 0.858,-0.673 2.238,-1.102 4.14,-1.287 v -1.391 c -1.392,0.138 -3.502,0.209 -6.33,0.209 -2.83,0 -4.847,-0.071 -6.053,-0.209 v 1.391 c 1.252,0.324 2.319,1.032 3.2,2.122 0.881,1.088 1.715,2.539 2.504,4.347 l 15.374,34.781 h 1.113 L 8,-54.815 c 1.252,-2.876 2.852,-4.361 4.8,-4.453"
             style="fill:#263049;fill-opacity:1;fill-rule:nonzero;stroke:none;stroke-width:0.635631"
             id="path126" />
        </g>
        <g
           id="g128"
           transform="matrix(0.08893589,0,0,-0.08893589,21.327138,1.1354417)"
           style="stroke-width:0.635631">
          <path
             d="m 0,0 c -1.67,-0.094 -2.887,-0.278 -3.652,-0.557 -0.765,-0.278 -1.287,-0.812 -1.565,-1.6 -0.278,-0.789 -0.418,-2.064 -0.418,-3.825 v -27.547 c 0,-1.764 0.14,-3.038 0.418,-3.826 0.278,-0.79 0.8,-1.311 1.565,-1.566 0.765,-0.255 1.982,-0.383 3.652,-0.383 h 4.383 c 3.199,0 5.691,0.95 7.477,2.853 1.786,1.901 2.864,5.054 3.235,9.46 h 1.6 c -0.139,-1.438 -0.209,-3.339 -0.209,-5.704 0,-2.411 0.162,-5.148 0.488,-8.208 -3.016,0.138 -8.094,0.209 -15.235,0.209 -8.58,0 -15.072,-0.071 -19.477,-0.209 v 1.391 c 1.669,0.092 2.886,0.279 3.651,0.557 0.766,0.277 1.287,0.81 1.566,1.6 0.278,0.788 0.417,2.062 0.417,3.826 v 27.547 c 0,1.761 -0.139,3.036 -0.417,3.825 -0.279,0.788 -0.8,1.322 -1.566,1.6 -0.765,0.279 -1.982,0.463 -3.651,0.557 v 1.391 c 1.947,-0.139 4.915,-0.208 8.903,-0.208 3.71,0 6.654,0.069 8.835,0.208 z"
             style="fill:#263049;fill-opacity:1;fill-rule:nonzero;stroke:none;stroke-width:0.635631"
             id="path130" />
        </g>
        <g
           id="g132"
           transform="matrix(0.08893589,0,0,-0.08893589,26.47448,1.0117677)"
           style="stroke-width:0.635631">
          <path
             d="M 0,0 V -1.391 C -1.299,-1.716 -2.343,-2.354 -3.131,-3.304 -3.92,-4.255 -4.824,-5.89 -5.844,-8.208 l -15.234,-34.434 h -1.112 l -16.279,36.799 c -1.252,2.875 -2.851,4.359 -4.8,4.452 V 0 c 1.902,-0.139 4.383,-0.208 7.444,-0.208 3.988,0 6.956,0.069 8.904,0.208 v -1.391 c -1.717,-0.093 -2.98,-0.325 -3.791,-0.696 -0.812,-0.371 -1.218,-0.997 -1.218,-1.878 0,-0.742 0.325,-1.833 0.974,-3.269 l 11.965,-26.991 10.365,23.095 c 1.158,2.504 1.739,4.475 1.739,5.913 0,1.298 -0.452,2.237 -1.356,2.818 -0.904,0.579 -2.285,0.915 -4.14,1.008 V 0 c 1.392,-0.139 3.966,-0.208 7.722,-0.208 1.948,0 3.501,0.069 4.661,0.208"
             style="fill:#263049;fill-opacity:1;fill-rule:nonzero;stroke:none;stroke-width:0.635631"
             id="path134" />
        </g>
        <g
           id="g136"
           transform="matrix(0.08893589,0,0,-0.08893589,28.256231,3.3008257)"
           style="stroke-width:0.635631">
          <path
             d="M 0,0 -7.86,17.669 -15.791,0 Z m 16.417,-15.164 v -1.392 c -1.855,0.139 -4.337,0.209 -7.443,0.209 -3.99,0 -6.956,-0.07 -8.905,-0.209 v 1.392 c 1.716,0.092 2.98,0.323 3.791,0.695 0.812,0.371 1.218,0.997 1.218,1.878 0,0.741 -0.325,1.832 -0.974,3.27 l -3.547,7.93 h -16.905 l -2.365,-5.217 c -0.789,-1.809 -1.182,-3.293 -1.182,-4.453 0,-1.206 0.428,-2.145 1.287,-2.817 0.857,-0.673 2.237,-1.101 4.139,-1.286 v -1.392 c -1.391,0.139 -3.502,0.209 -6.33,0.209 -2.83,0 -4.847,-0.07 -6.053,-0.209 v 1.392 c 1.252,0.323 2.319,1.031 3.201,2.121 0.88,1.089 1.714,2.539 2.504,4.348 l 15.374,34.781 h 1.112 l 16.278,-36.798 c 1.252,-2.876 2.852,-4.36 4.8,-4.452"
             style="fill:#263049;fill-opacity:1;fill-rule:nonzero;stroke:none;stroke-width:0.635631"
             id="path138" />
        </g>
        <g
           id="g140"
           transform="matrix(0.08893589,0,0,-0.08893589,31.179393,1.1787797)"
           style="stroke-width:0.635631">
          <path
             d="M 0,0 C -0.626,-0.325 -1.056,-0.904 -1.287,-1.739 -1.52,-2.574 -1.635,-3.826 -1.635,-5.495 v -13.983 h 4.661 c 4.08,0 6.874,0.87 8.382,2.609 1.507,1.739 2.261,4.209 2.261,7.408 0,3.34 -0.847,5.832 -2.539,7.479 C 9.437,-0.337 6.666,0.487 2.817,0.487 1.565,0.487 0.626,0.324 0,0 m 27.304,-37.494 c -0.882,-1.252 -1.891,-2.216 -3.027,-2.887 -1.136,-0.672 -2.493,-1.009 -4.069,-1.009 -3.896,0 -6.284,1.762 -7.165,5.286 l -2.156,8.696 c -0.651,2.596 -1.613,4.336 -2.887,5.218 -1.276,0.879 -3.165,1.321 -5.67,1.321 h -3.965 v -12.173 c 0,-1.764 0.14,-3.038 0.418,-3.826 0.278,-0.789 0.8,-1.322 1.565,-1.6 0.765,-0.278 1.982,-0.465 3.652,-0.556 v -1.392 c -2.134,0.139 -5.078,0.209 -8.835,0.209 -3.988,0 -6.956,-0.07 -8.903,-0.209 v 1.392 c 1.669,0.091 2.886,0.278 3.651,0.556 0.766,0.278 1.287,0.811 1.566,1.6 0.278,0.788 0.417,2.062 0.417,3.826 v 27.547 c 0,1.762 -0.139,3.036 -0.417,3.825 -0.279,0.788 -0.8,1.322 -1.566,1.601 -0.765,0.278 -1.982,0.463 -3.651,0.556 V 1.878 C -11.791,1.739 -8.963,1.67 -5.252,1.67 l 7.096,0.069 c 0.788,0.045 1.692,0.07 2.713,0.07 5.193,0 9.17,-0.974 11.929,-2.922 2.759,-1.948 4.139,-4.476 4.139,-7.582 0,-2.691 -1.078,-5.148 -3.234,-7.374 -2.157,-2.226 -5.694,-3.641 -10.609,-4.243 0.928,-0.094 1.716,-0.186 2.365,-0.279 2.458,-0.371 4.406,-1.113 5.844,-2.225 1.437,-1.114 2.457,-2.9 3.061,-5.357 l 1.53,-6.33 c 0.371,-1.624 0.776,-2.771 1.218,-3.443 0.439,-0.673 1.008,-1.009 1.704,-1.009 1.158,0 2.434,0.788 3.826,2.365 z"
             style="fill:#263049;fill-opacity:1;fill-rule:nonzero;stroke:none;stroke-width:0.635631"
             id="path142" />
        </g>
        <g
           id="g144"
           transform="matrix(0.08893589,0,0,-0.08893589,36.905077,4.7732127)"
           style="stroke-width:0.635631">
          <path
             d="m 0,0 c -3.016,0.139 -8.094,0.209 -15.234,0.209 -8.58,0 -15.073,-0.07 -19.478,-0.209 v 1.392 c 1.669,0.091 2.887,0.278 3.651,0.556 0.766,0.278 1.288,0.811 1.566,1.6 0.278,0.788 0.418,2.062 0.418,3.826 v 27.547 c 0,1.762 -0.14,3.036 -0.418,3.825 -0.278,0.788 -0.8,1.322 -1.566,1.601 -0.764,0.278 -1.982,0.463 -3.651,0.556 v 1.391 c 4.405,-0.139 10.898,-0.208 19.478,-0.208 6.492,0 11.105,0.069 13.842,0.208 -0.325,-2.782 -0.487,-5.286 -0.487,-7.513 0,-1.808 0.07,-3.246 0.209,-4.312 h -1.6 c -0.325,3.802 -1.125,6.457 -2.4,7.965 -1.275,1.505 -3.351,2.26 -6.226,2.26 h -5.078 c -1.67,0 -2.886,-0.128 -3.652,-0.382 -0.765,-0.255 -1.287,-0.778 -1.564,-1.566 -0.279,-0.789 -0.418,-2.063 -0.418,-3.825 v -12.94 h 5.773 c 1.484,0 2.62,0.383 3.409,1.149 0.788,0.765 1.322,1.599 1.6,2.504 0.278,0.904 0.533,2.052 0.765,3.443 h 1.6 C -9.6,27.5 -9.67,25.784 -9.67,23.93 v -2.644 c 0,-1.808 0.14,-4.406 0.418,-7.791 h -1.601 c -0.278,2.226 -0.811,3.965 -1.599,5.217 -0.789,1.253 -2.25,1.879 -4.383,1.879 h -5.773 V 7.374 c 0,-1.764 0.139,-3.038 0.418,-3.826 0.277,-0.789 0.799,-1.311 1.564,-1.566 0.766,-0.254 1.982,-0.382 3.652,-0.382 h 5.078 c 2.319,0 4.15,0.371 5.496,1.113 1.344,0.741 2.365,1.935 3.061,3.583 0.695,1.645 1.182,3.953 1.46,6.921 h 1.601 C -0.418,11.965 -0.487,10.295 -0.487,8.208 -0.487,5.797 -0.325,3.061 0,0"
             style="fill:#263049;fill-opacity:1;fill-rule:nonzero;stroke:none;stroke-width:0.635631"
             id="path146" />
        </g>
        <g
           id="g148"
           transform="matrix(0.08893589,0,0,-0.08893589,40.431332,1.1354417)"
           style="stroke-width:0.635631">
          <path
             d="m 0,0 -24.556,-39.304 h 15.304 c 2.411,0 4.243,0.87 5.495,2.61 1.252,1.738 2.064,4.74 2.435,9.007 h 1.6 c -0.139,-1.437 -0.209,-3.338 -0.209,-5.704 0,-2.225 0.162,-4.73 0.488,-7.512 -3.294,0.138 -8.835,0.209 -16.626,0.209 -7.42,0 -12.824,-0.071 -16.208,-0.209 v 1.391 L -7.722,-0.209 H -22.33 c -2.411,0 -4.243,-0.87 -5.495,-2.608 -1.252,-1.74 -2.065,-4.743 -2.435,-9.009 h -1.6 c 0.139,1.483 0.209,3.385 0.209,5.704 0,2.226 -0.163,4.73 -0.487,7.513 3.292,-0.139 8.834,-0.208 16.625,-0.208 7.096,0 12.266,0.069 15.513,0.208 z"
             style="fill:#263049;fill-opacity:1;fill-rule:nonzero;stroke:none;stroke-width:0.635631"
             id="path150" />
        </g>
      </g>
    </g>
  </g>
</svg>
